<svg version="1.1" id="Layer_1" xmlns="http://www.w3.org/2000/svg" xmlns:xlink="http://www.w3.org/1999/xlink" x="0px" y="0px"
	 width="100%" viewBox="0 0 512 512" enable-background="new 0 0 512 512" xml:space="preserve">
<path fill="#000000" opacity="1.000000" stroke="none" 
	d="
M513.000000,187.000000 
	C513.000000,295.973511 513.000000,404.447021 513.000000,512.960266 
	C342.401489,512.960266 171.802948,512.960266 1.102209,512.960266 
	C1.102209,342.443176 1.102209,171.886292 1.102209,1.164694 
	C171.666534,1.164694 342.333252,1.164694 513.000000,1.164694 
	C513.000000,62.863682 513.000000,124.681839 513.000000,187.000000 
M158.337204,11.023900 
	C157.890701,11.070150 157.444214,11.116402 156.070129,11.021505 
	C148.412277,11.014272 140.742294,11.265223 133.101013,10.905739 
	C128.297852,10.679774 125.544838,11.582026 125.894966,17.161867 
	C126.065010,19.871794 125.266373,22.654013 124.819000,25.389231 
	C122.561729,39.190266 120.267654,52.985283 118.002502,66.785034 
	C116.369720,76.732231 114.715965,86.676323 113.155266,96.634918 
	C111.365913,108.052513 109.669029,119.484596 107.006088,130.988464 
	C97.856277,130.992172 88.699120,130.786316 79.560402,131.106598 
	C76.086418,131.228317 72.522247,132.199799 69.230812,133.412613 
	C61.820896,136.142960 59.124855,142.850143 56.086102,149.425110 
	C45.290764,172.783035 34.287930,196.045593 23.267702,219.298767 
	C19.240118,227.797150 21.147104,239.238083 27.311605,245.054794 
	C32.752182,250.188431 38.862835,252.058182 45.993706,253.026230 
	C45.995625,323.183044 45.978878,393.339874 46.042286,463.496613 
	C46.046429,468.076721 46.339722,472.708069 47.058937,477.226410 
	C49.224602,490.831787 62.764473,502.925629 76.740425,502.938171 
	C196.890106,503.046082 317.039948,503.000977 437.189728,502.990540 
	C438.679443,502.990417 440.252594,503.131256 441.646179,502.724518 
	C458.281281,497.869141 467.980408,486.083649 467.989868,468.008301 
	C468.018280,413.849243 467.991425,359.690186 468.005005,305.531128 
	C468.009460,287.701965 468.071442,269.872803 468.967499,252.005844 
	C486.677612,252.513733 497.658417,235.756393 491.234894,220.799408 
	C486.319275,209.353455 480.763489,198.180984 475.432831,186.915070 
	C469.060913,173.448410 461.896759,160.298355 456.458160,146.467590 
	C452.422058,136.203506 443.009521,130.884598 433.536835,130.975632 
	C424.389496,131.063538 415.240265,130.955231 406.013367,130.008057 
	C406.013367,90.447754 406.013367,50.887451 406.013367,11.300877 
	C354.040070,11.300877 302.687500,11.300877 250.939911,11.300877 
	C250.939911,51.363331 250.939911,91.126419 250.014557,130.985977 
	C236.039062,130.967834 222.063553,130.949692 208.011795,130.076279 
	C207.308090,124.643074 207.497742,118.878487 205.641052,113.872963 
	C203.900665,109.181114 204.452469,104.675888 204.866714,100.017220 
	C206.654312,99.805977 208.481384,99.763161 210.222885,99.355164 
	C219.152176,97.263222 221.107742,93.094330 216.917145,84.871468 
	C214.087570,79.319214 211.075241,73.858337 208.068176,68.398712 
	C203.739807,60.540199 199.341949,52.719959 194.874374,44.422306 
	C194.874374,44.422306 194.748489,43.967751 194.870132,43.461735 
	C194.592209,43.270344 194.314285,43.078957 194.004913,42.066418 
	C193.312790,37.609863 192.713928,33.135578 191.871964,28.707508 
	C191.617889,27.371271 190.217010,26.186071 190.154663,24.892494 
	C189.935257,20.339909 190.069397,15.770285 190.069397,11.167051 
	C179.535370,11.167051 169.761185,11.167051 159.494003,11.043323 
	C159.329330,11.083215 159.164658,11.123107 158.337204,11.023900 
z"/>
<path fill="#FFCA67" opacity="1.000000" stroke="none" 
	d="
M468.107147,252.043610 
	C468.071442,269.872803 468.009460,287.701965 468.005005,305.531128 
	C467.991425,359.690186 468.018280,413.849243 467.989868,468.008301 
	C467.980408,486.083649 458.281281,497.869141 441.646179,502.724518 
	C440.252594,503.131256 438.679443,502.990417 437.189728,502.990540 
	C317.039948,503.000977 196.890106,503.046082 76.740425,502.938171 
	C62.764473,502.925629 49.224602,490.831787 47.058937,477.226410 
	C46.339722,472.708069 46.046429,468.076721 46.042286,463.496613 
	C45.978878,393.339874 45.995625,323.183044 46.297760,252.303192 
	C48.235527,251.387421 49.869205,251.026215 51.502949,251.025894 
	C188.262863,250.999939 325.022797,250.997330 461.782715,251.045303 
	C463.890961,251.046051 465.998993,251.696411 468.107147,252.043610 
M87.574043,455.376282 
	C87.669365,457.461823 87.764694,459.547363 87.852829,461.475616 
	C118.808907,461.475616 149.177200,461.475616 179.508392,461.475616 
	C179.508392,456.303680 179.508392,451.568359 179.508392,446.705719 
	C148.785233,446.705719 118.428375,446.705719 87.574715,446.705719 
	C87.574715,449.542053 87.574715,452.005798 87.574043,455.376282 
M101.350464,407.497864 
	C101.371712,412.652039 101.258476,417.811523 101.461464,422.958527 
	C101.596832,426.390839 103.580734,428.719788 107.111427,428.691376 
	C110.622238,428.663147 112.463722,426.319122 112.764626,422.901794 
	C112.924515,421.085846 112.828514,419.246338 112.829155,417.417480 
	C112.832878,406.856995 112.830978,396.296478 112.830978,384.638153 
	C114.621910,386.258850 115.563171,387.088593 116.480011,387.944489 
	C119.177940,390.462921 122.143082,391.052002 124.850952,388.295349 
	C127.540871,385.557037 126.995438,382.534912 124.415359,379.913208 
	C120.100388,375.528595 115.978653,370.886475 111.216972,367.045227 
	C109.543816,365.695465 105.248596,365.189453 103.836792,366.349731 
	C98.471115,370.759644 93.515335,375.774384 89.052635,381.104187 
	C87.898743,382.482239 88.275620,386.351471 89.411903,388.154755 
	C91.124214,390.872040 94.265915,390.620972 96.882149,388.644653 
	C98.145172,387.690491 99.262192,386.543060 101.350815,384.671906 
	C101.350815,392.693359 101.350815,399.596100 101.350464,407.497864 
M158.944809,365.122925 
	C153.275192,370.453064 147.364655,375.562988 142.128830,381.289764 
	C141.013687,382.509491 141.485794,386.861633 142.807312,388.152710 
	C144.115540,389.430756 147.514587,389.111572 149.818527,388.634064 
	C151.321365,388.322601 152.506485,386.478180 154.445999,384.786652 
	C154.564346,386.822083 154.698471,388.076965 154.700607,389.332031 
	C154.718079,399.658936 154.694992,409.985901 154.717789,420.312805 
	C154.730392,426.026886 156.520126,428.732208 160.208145,428.758698 
	C163.937485,428.785492 165.933594,425.946716 165.945862,420.459656 
	C165.969315,409.966187 165.940369,399.472626 165.972260,388.979218 
	C165.975876,387.792725 166.230621,386.607025 166.421600,384.968994 
	C167.548935,385.979706 168.206024,386.494934 168.776459,387.092865 
	C171.483414,389.929962 174.475708,391.399963 177.919525,388.446014 
	C180.818527,385.959473 180.323441,382.743164 176.635193,378.993286 
	C172.897919,375.193481 169.226379,371.312866 165.267014,367.755981 
	C163.785843,366.425385 161.574051,365.908051 158.944809,365.122925 
z"/>
<path fill="#F5B948" opacity="1.000000" stroke="none" 
	d="
M468.537323,252.024719 
	C465.998993,251.696411 463.890961,251.046051 461.782715,251.045303 
	C325.022797,250.997330 188.262863,250.999939 51.502949,251.025894 
	C49.869205,251.026215 48.235527,251.387421 46.272446,251.841614 
	C38.862835,252.058182 32.752182,250.188431 27.311605,245.054794 
	C21.147104,239.238083 19.240118,227.797150 23.267702,219.298767 
	C34.287930,196.045593 45.290764,172.783035 56.086102,149.425110 
	C59.124855,142.850143 61.820896,136.142960 69.230812,133.412613 
	C72.522247,132.199799 76.086418,131.228317 79.560402,131.106598 
	C88.699120,130.786316 97.856277,130.992172 107.836868,131.153778 
	C123.458061,131.326019 138.248474,131.332947 153.472351,131.475861 
	C156.926239,131.523499 159.946686,131.435150 163.424591,131.457001 
	C175.684113,131.597183 187.486389,131.675568 199.288086,131.623001 
	C202.222382,131.609924 205.154785,131.173447 208.088058,130.931564 
	C222.063553,130.949692 236.039062,130.967834 250.862885,131.104889 
	C253.507675,131.449310 255.303986,131.870361 257.100647,131.871719 
	C304.654724,131.907654 352.208862,131.912659 399.762909,131.859283 
	C401.872894,131.856918 403.982239,131.255493 406.091858,130.933121 
	C415.240265,130.955231 424.389496,131.063538 433.536835,130.975632 
	C443.009521,130.884598 452.422058,136.203506 456.458160,146.467590 
	C461.896759,160.298355 469.060913,173.448410 475.432831,186.915070 
	C480.763489,198.180984 486.319275,209.353455 491.234894,220.799408 
	C497.658417,235.756393 486.677612,252.513733 468.537323,252.024719 
z"/>
<path fill="#E9715F" opacity="1.000000" stroke="none" 
	d="
M406.052612,130.470581 
	C403.982239,131.255493 401.872894,131.856918 399.762909,131.859283 
	C352.208862,131.912659 304.654724,131.907654 257.100647,131.871719 
	C255.303986,131.870361 253.507675,131.449310 251.325562,131.056671 
	C250.939911,91.126419 250.939911,51.363331 250.939911,11.300877 
	C302.687500,11.300877 354.040070,11.300877 406.013367,11.300877 
	C406.013367,50.887451 406.013367,90.447754 406.052612,130.470581 
M296.231628,41.885639 
	C296.258881,47.878624 296.086823,53.880390 296.350311,59.862972 
	C297.176147,78.613182 311.438934,92.330605 329.574310,92.003647 
	C347.347412,91.683228 360.905670,77.334511 361.041382,58.705818 
	C361.086243,52.548584 361.139313,46.391407 361.841827,39.956463 
	C365.616028,35.852852 365.896271,31.843697 362.632904,28.639559 
	C359.467896,25.532001 354.452759,25.679422 351.515350,28.966351 
	C348.488098,32.353798 349.041809,36.466068 353.191711,41.112175 
	C353.194122,47.442131 353.332855,53.775574 353.170990,60.101326 
	C352.820099,73.814255 342.399750,84.076965 328.932220,84.150497 
	C315.503693,84.223816 304.742737,74.094208 304.165192,60.493767 
	C303.890015,54.013515 304.197601,47.508518 304.821045,40.656422 
	C305.738525,37.894726 307.931244,34.728218 307.218781,32.483925 
	C306.490234,30.188835 303.034058,27.617935 300.546661,27.362690 
	C298.319031,27.134100 294.868958,29.342138 293.597351,31.459536 
	C291.611938,34.765446 292.507324,38.487247 296.231628,41.885639 
z"/>
<path fill="#5AB1E2" opacity="1.000000" stroke="none" 
	d="
M153.038895,131.339905 
	C138.248474,131.332947 123.458061,131.326019 108.299805,131.114731 
	C109.669029,119.484596 111.365913,108.052513 113.155266,96.634918 
	C114.715965,86.676323 116.369720,76.732231 118.002502,66.785034 
	C120.267654,52.985283 122.561729,39.190266 124.819000,25.389231 
	C125.266373,22.654013 126.065010,19.871794 125.894966,17.161867 
	C125.544838,11.582026 128.297852,10.679774 133.101013,10.905739 
	C140.742294,11.265223 148.412277,11.014272 156.535309,11.550191 
	C156.351044,29.630184 155.644363,47.179604 155.066559,64.733269 
	C154.335785,86.933678 153.709976,109.137535 153.038895,131.339905 
z"/>
<path fill="#59B1E3" opacity="1.000000" stroke="none" 
	d="
M208.049927,130.503922 
	C205.154785,131.173447 202.222382,131.609924 199.288086,131.623001 
	C187.486389,131.675568 175.684113,131.597183 163.432709,131.033539 
	C162.338623,111.332573 161.693878,92.165276 161.305054,72.935120 
	C161.388275,72.248756 161.215607,71.625237 161.033020,70.533340 
	C160.699356,61.375912 160.375641,52.686863 160.307526,43.934853 
	C160.389664,43.248493 160.216187,42.625099 160.032822,41.533222 
	C159.690109,31.374565 159.357285,21.684389 159.207947,11.884958 
	C159.625198,11.607297 159.823730,11.404413 159.987015,11.167051 
	C169.761185,11.167051 179.535370,11.167051 190.069397,11.167051 
	C190.069397,15.770285 189.935257,20.339909 190.154663,24.892494 
	C190.217010,26.186071 191.617889,27.371271 191.871964,28.707508 
	C192.713928,33.135578 193.312790,37.609863 194.103210,42.679291 
	C194.339508,43.553257 194.521835,43.778450 194.748489,43.967751 
	C194.748489,43.967751 194.874374,44.422306 194.875900,45.114464 
	C195.962769,51.891937 197.048096,57.977253 198.075104,64.445465 
	C197.726151,66.062080 197.003494,67.375381 197.213760,68.516815 
	C198.780365,77.020760 200.531830,85.490646 202.223236,94.339149 
	C202.863174,96.484840 199.553543,99.574150 204.006729,100.086990 
	C204.452469,104.675888 203.900665,109.181114 205.641052,113.872963 
	C207.497742,118.878487 207.308090,124.643074 208.049927,130.503922 
z"/>
<path fill="#36A9D9" opacity="1.000000" stroke="none" 
	d="
M160.051910,43.997818 
	C160.375641,52.686863 160.699356,61.375912 161.022491,70.865990 
	C161.030991,72.110672 161.040070,72.554321 161.049149,72.997971 
	C161.693878,92.165276 162.338623,111.332573 162.975250,130.923340 
	C159.946686,131.435150 156.926239,131.523499 153.472351,131.475876 
	C153.709976,109.137535 154.335785,86.933678 155.066559,64.733269 
	C155.644363,47.179604 156.351044,29.630184 156.999100,11.620764 
	C157.444214,11.116402 157.890701,11.070150 158.672226,11.301325 
	C159.007248,11.578751 159.024460,11.994215 159.024460,11.994215 
	C159.357285,21.684389 159.690109,31.374565 160.022552,41.865868 
	C160.032074,43.110600 160.041992,43.554211 160.051910,43.997818 
z"/>
<path fill="#696A68" opacity="1.000000" stroke="none" 
	d="
M198.133423,64.062569 
	C197.048096,57.977253 195.962769,51.891937 194.925583,45.345005 
	C199.341949,52.719959 203.739807,60.540199 208.068176,68.398712 
	C211.075241,73.858337 214.087570,79.319214 216.917145,84.871468 
	C221.107742,93.094330 219.152176,97.263222 210.222885,99.355164 
	C208.481384,99.763161 206.654312,99.805977 204.436722,100.052109 
	C199.553543,99.574150 202.863174,96.484840 202.638947,94.336227 
	C206.330811,93.513420 209.604874,93.061478 213.921417,92.465622 
	C208.213120,82.196228 203.173279,73.129395 198.133423,64.062569 
z"/>
<path fill="#59AFE0" opacity="1.000000" stroke="none" 
	d="
M194.809311,43.714745 
	C194.521835,43.778450 194.339508,43.553257 194.118942,43.089867 
	C194.314285,43.078957 194.592209,43.270344 194.809311,43.714745 
z"/>
<path fill="#57B1E2" opacity="1.000000" stroke="none" 
	d="
M159.207947,11.884958 
	C159.024460,11.994215 159.007248,11.578751 159.003616,11.370875 
	C159.164658,11.123107 159.329330,11.083215 159.740509,11.105186 
	C159.823730,11.404413 159.625198,11.607297 159.207947,11.884958 
z"/>
<path fill="#4C4A46" opacity="1.000000" stroke="none" 
	d="
M87.574379,454.922913 
	C87.574715,452.005798 87.574715,449.542053 87.574715,446.705719 
	C118.428375,446.705719 148.785233,446.705719 179.508392,446.705719 
	C179.508392,451.568359 179.508392,456.303680 179.508392,461.475616 
	C149.177200,461.475616 118.808907,461.475616 87.852829,461.475616 
	C87.764694,459.547363 87.669365,457.461823 87.574379,454.922913 
z"/>
<path fill="#4B4946" opacity="1.000000" stroke="none" 
	d="
M101.350639,406.998352 
	C101.350815,399.596100 101.350815,392.693359 101.350815,384.671906 
	C99.262192,386.543060 98.145172,387.690491 96.882149,388.644653 
	C94.265915,390.620972 91.124214,390.872040 89.411903,388.154755 
	C88.275620,386.351471 87.898743,382.482239 89.052635,381.104187 
	C93.515335,375.774384 98.471115,370.759644 103.836792,366.349731 
	C105.248596,365.189453 109.543816,365.695465 111.216972,367.045227 
	C115.978653,370.886475 120.100388,375.528595 124.415359,379.913208 
	C126.995438,382.534912 127.540871,385.557037 124.850952,388.295349 
	C122.143082,391.052002 119.177940,390.462921 116.480011,387.944489 
	C115.563171,387.088593 114.621910,386.258850 112.830978,384.638153 
	C112.830978,396.296478 112.832878,406.856995 112.829155,417.417480 
	C112.828514,419.246338 112.924515,421.085846 112.764626,422.901794 
	C112.463722,426.319122 110.622238,428.663147 107.111427,428.691376 
	C103.580734,428.719788 101.596832,426.390839 101.461464,422.958527 
	C101.258476,417.811523 101.371712,412.652039 101.350639,406.998352 
z"/>
<path fill="#474646" opacity="1.000000" stroke="none" 
	d="
M159.320099,365.071411 
	C161.574051,365.908051 163.785843,366.425385 165.267014,367.755981 
	C169.226379,371.312866 172.897919,375.193481 176.635193,378.993286 
	C180.323441,382.743164 180.818527,385.959473 177.919525,388.446014 
	C174.475708,391.399963 171.483414,389.929962 168.776459,387.092865 
	C168.206024,386.494934 167.548935,385.979706 166.421600,384.968994 
	C166.230621,386.607025 165.975876,387.792725 165.972260,388.979218 
	C165.940369,399.472626 165.969315,409.966187 165.945862,420.459656 
	C165.933594,425.946716 163.937485,428.785492 160.208145,428.758698 
	C156.520126,428.732208 154.730392,426.026886 154.717789,420.312805 
	C154.694992,409.985901 154.718079,399.658936 154.700607,389.332031 
	C154.698471,388.076965 154.564346,386.822083 154.445999,384.786652 
	C152.506485,386.478180 151.321365,388.322601 149.818527,388.634064 
	C147.514587,389.111572 144.115540,389.430756 142.807312,388.152710 
	C141.485794,386.861633 141.013687,382.509491 142.128830,381.289764 
	C147.364655,375.562988 153.275192,370.453064 159.320099,365.071411 
z"/>
<path fill="#EEEAE7" opacity="1.000000" stroke="none" 
	d="
M361.188629,40.234207 
	C361.139313,46.391407 361.086243,52.548584 361.041382,58.705818 
	C360.905670,77.334511 347.347412,91.683228 329.574310,92.003647 
	C311.438934,92.330605 297.176147,78.613182 296.350311,59.862972 
	C296.086823,53.880390 296.258881,47.878624 296.256073,41.051193 
	C296.328278,39.561260 296.127533,38.701191 296.468445,38.287079 
	C297.689423,36.804070 299.093872,35.472107 300.428925,34.083015 
	C301.637482,35.576187 302.950317,37.000755 304.000793,38.597908 
	C304.394867,39.197048 304.178986,40.197330 304.241211,41.014729 
	C304.197601,47.508518 303.890015,54.013515 304.165192,60.493767 
	C304.742737,74.094208 315.503693,84.223816 328.932220,84.150497 
	C342.399750,84.076965 352.820099,73.814255 353.170990,60.101326 
	C353.332855,53.775574 353.194122,47.442131 353.213928,40.284500 
	C353.402100,36.618683 354.249603,33.537716 357.534210,34.388432 
	C359.148712,34.806591 359.994781,38.191742 361.188629,40.234207 
z"/>
<path fill="#4B4748" opacity="1.000000" stroke="none" 
	d="
M361.515198,40.095337 
	C359.994781,38.191742 359.148712,34.806591 357.534210,34.388432 
	C354.249603,33.537716 353.402100,36.618683 353.132935,39.835136 
	C349.041809,36.466068 348.488098,32.353798 351.515350,28.966351 
	C354.452759,25.679422 359.467896,25.532001 362.632904,28.639559 
	C365.896271,31.843697 365.616028,35.852852 361.515198,40.095337 
z"/>
<path fill="#4C4848" opacity="1.000000" stroke="none" 
	d="
M304.531128,40.835575 
	C304.178986,40.197330 304.394867,39.197048 304.000793,38.597908 
	C302.950317,37.000755 301.637482,35.576187 300.428925,34.083015 
	C299.093872,35.472107 297.689423,36.804070 296.468445,38.287079 
	C296.127533,38.701191 296.328278,39.561260 296.170105,40.586113 
	C292.507324,38.487247 291.611938,34.765446 293.597351,31.459536 
	C294.868958,29.342138 298.319031,27.134100 300.546661,27.362690 
	C303.034058,27.617935 306.490234,30.188835 307.218781,32.483925 
	C307.931244,34.728218 305.738525,37.894726 304.531128,40.835575 
z"/>
<path fill="#000000" opacity="1.000000" stroke="none" 
	d="
M198.075104,64.445465 
	C203.173279,73.129395 208.213120,82.196228 213.921417,92.465622 
	C209.604874,93.061478 206.330811,93.513420 202.641037,93.968292 
	C200.531830,85.490646 198.780365,77.020760 197.213760,68.516815 
	C197.003494,67.375381 197.726151,66.062080 198.075104,64.445465 
z"/>
<path fill="#57B1E3" opacity="1.000000" stroke="none" 
	d="
M160.307526,43.934853 
	C160.041992,43.554211 160.032074,43.110600 160.032440,42.334351 
	C160.216187,42.625099 160.389664,43.248493 160.307526,43.934853 
z"/>
<path fill="#57B1E3" opacity="1.000000" stroke="none" 
	d="
M161.305054,72.935120 
	C161.040070,72.554321 161.030991,72.110672 161.032425,71.334366 
	C161.215607,71.625237 161.388275,72.248756 161.305054,72.935120 
z"/>
</svg>