<svg version="1.1" id="Layer_1" xmlns="http://www.w3.org/2000/svg" xmlns:xlink="http://www.w3.org/1999/xlink" x="0px" y="0px"
	 width="100%" viewBox="0 0 512 512" enable-background="new 0 0 512 512" xml:space="preserve">
<path fill="#000000" opacity="1.000000" stroke="none" 
	d="
M1.000000,84.000000 
	C1.000000,56.345901 1.000000,28.691805 1.000000,1.018854 
	C171.576553,1.018854 342.153107,1.018854 513.000000,1.018854 
	C513.000000,122.354630 513.000000,243.709473 512.647461,365.829590 
	C511.885254,366.094788 511.206726,365.643616 511.105591,365.087463 
	C509.028748,353.663727 507.108002,342.211029 504.957886,330.801483 
	C503.770294,324.499573 502.220062,318.266022 500.907471,311.581421 
	C500.321014,307.191559 499.770386,303.199829 498.976349,299.257111 
	C497.404602,291.453064 495.698395,283.676117 494.028198,275.465607 
	C493.020813,269.988983 492.032928,264.934753 491.027893,259.452271 
	C490.106720,254.995163 489.202637,250.966263 488.703308,246.924347 
	C489.783722,240.959198 490.459381,235.007034 491.367126,228.958649 
	C491.684204,228.561447 491.769135,228.260498 491.924194,227.521912 
	C492.009766,224.432083 492.025208,221.779892 492.387085,218.913666 
	C492.771729,216.800552 492.809906,214.901505 492.916809,212.641922 
	C493.023407,211.548859 493.061310,210.816315 493.087769,210.063812 
	C493.076355,210.043869 493.052948,210.082504 493.363525,209.924011 
	C493.731110,208.857925 493.788116,207.950348 493.917603,206.665619 
	C493.944061,205.524734 493.898010,204.761002 493.918091,203.634399 
	C494.030457,202.536240 494.076660,201.800919 494.470367,200.834686 
	C495.158295,197.065704 495.498718,193.527649 495.905548,189.550323 
	C496.260437,184.737457 496.548920,180.363831 496.918091,175.575958 
	C497.998810,167.236328 499.015045,159.312973 499.994263,151.385040 
	C500.935760,143.762756 502.203613,136.156891 502.647827,128.504333 
	C503.028809,121.940720 503.459839,115.102783 502.091949,108.769943 
	C498.779877,93.436295 487.861572,85.853470 472.612732,83.092819 
	C471.145935,83.067482 470.075317,83.115944 468.685120,83.087898 
	C467.577118,82.721466 466.788696,82.431541 465.627228,82.076874 
	C464.501617,82.064537 463.749115,82.116936 462.673767,82.105019 
	C461.916626,82.085411 461.482300,82.130127 460.744873,82.103104 
	C460.027039,82.028450 459.612274,82.025513 459.106537,81.659042 
	C458.284485,79.557297 457.553375,77.819092 456.902466,75.753708 
	C456.650024,74.946007 456.317444,74.465477 455.987305,73.998230 
	C455.989716,74.011520 456.015961,74.017921 456.008972,73.579605 
	C454.994232,66.902000 454.424591,60.551918 452.881042,54.448116 
	C450.250824,44.046997 445.171478,35.264950 434.219330,30.857449 
	C424.563873,25.570087 414.818115,26.623569 404.596252,29.102535 
	C392.128204,31.414360 380.064148,33.791222 367.592529,36.103737 
	C364.818451,36.520603 362.457703,37.032425 360.084503,37.477985 
	C346.391510,40.048782 332.695587,42.603920 318.607208,45.227074 
	C315.717133,45.861176 313.237122,46.522144 310.721039,46.988697 
	C298.773376,49.204136 286.823517,51.409485 274.859375,53.533817 
	C265.911072,55.122665 256.939880,56.582722 247.538330,58.040947 
	C239.742188,57.307266 232.383362,56.666225 225.032043,55.948112 
	C218.667740,55.326420 212.306046,54.668510 205.953735,53.935425 
	C194.912628,52.661240 183.885376,51.265877 172.841171,50.020164 
	C165.836182,49.230053 158.801453,48.702938 151.797104,47.907833 
	C140.918533,46.672943 130.052887,45.323177 119.184814,43.997257 
	C111.565361,43.067677 103.971901,41.839195 96.328323,41.217987 
	C88.958344,40.619022 81.434517,39.732166 74.165749,40.579685 
	C63.247379,41.852737 55.825172,49.122982 49.436878,57.975006 
	C46.990051,57.996925 45.003693,58.037617 43.019245,57.993004 
	C23.932337,57.563866 8.790143,63.313328 2.781465,83.529198 
	C2.690403,83.835564 1.615667,83.849564 1.000000,84.000000 
z"/>
<path fill="#000000" opacity="1.000000" stroke="none" 
	d="
M513.000000,392.000000 
	C513.000000,432.308807 513.000000,472.617584 513.000000,512.942627 
	C342.333313,512.942627 171.666656,512.942627 1.000000,512.942627 
	C1.000000,484.235901 1.000000,455.586609 1.319691,426.173645 
	C2.090235,426.041321 2.721263,426.610229 2.964764,427.313354 
	C6.313494,436.982910 12.041831,444.453583 22.129864,448.460632 
	C25.899506,449.538574 29.478529,450.764587 33.099579,450.904755 
	C42.041798,451.250916 51.003288,451.099213 59.973465,451.460999 
	C60.048325,452.187225 60.106754,452.600128 60.102600,453.362427 
	C60.343433,454.503510 60.646851,455.295166 60.956383,456.046936 
	C60.962498,456.007050 60.895977,456.052704 60.942436,456.421509 
	C61.046673,457.528290 61.104458,458.266296 61.098251,459.359009 
	C61.412285,460.811768 61.790310,461.909790 62.214455,463.369659 
	C66.217522,474.684906 73.445305,482.167511 85.160149,485.463379 
	C93.203094,488.029449 100.905716,486.726959 108.608040,485.011292 
	C115.061485,483.573730 121.534531,482.224152 128.419205,480.908875 
	C130.582596,480.656647 132.325256,480.328949 134.068817,480.006104 
	C146.170868,477.764923 158.271622,475.516785 170.375641,473.286438 
	C183.911316,470.792267 197.449997,468.314484 211.384491,465.767822 
	C218.896652,464.152252 226.011673,462.598450 233.554688,461.032593 
	C239.650360,459.968201 245.318069,458.915894 251.322845,457.938263 
	C252.115234,457.966034 252.570557,457.919067 253.261627,457.921570 
	C253.497391,457.970978 253.964645,457.853668 254.353851,457.796112 
	C257.836975,457.101654 260.930908,456.464752 264.472351,455.902344 
	C273.272980,456.671265 281.640961,457.223755 289.975616,458.094940 
	C301.201080,459.268250 312.403717,460.663391 323.610687,462.009064 
	C330.913239,462.885925 338.193848,463.959351 345.506561,464.734375 
	C353.324341,465.562866 361.168365,466.144257 369.421936,466.906555 
	C375.170990,467.652985 380.491241,468.397034 385.828918,468.982452 
	C392.987030,469.767609 400.157135,470.444946 407.324707,471.141571 
	C417.259491,472.107117 427.199921,473.834839 437.132111,473.794922 
	C448.946411,473.747498 462.067780,463.489990 464.982880,452.560333 
	C466.851624,445.553955 467.759155,438.285126 468.977112,431.113495 
	C469.763702,426.481812 470.332397,421.813080 471.371765,417.089600 
	C473.166138,416.629181 474.587524,416.240112 476.363861,415.918884 
	C477.814331,415.603485 478.909821,415.220245 480.363953,414.906219 
	C481.816193,414.595215 482.909821,414.214966 484.334320,413.904785 
	C485.110748,413.926208 485.556305,413.877533 486.356873,413.903931 
	C487.808685,413.596802 488.905548,413.214600 490.345398,412.810944 
	C491.826935,412.210236 492.965424,411.631012 494.463074,411.034241 
	C502.095551,407.115082 507.406342,401.428986 510.705383,393.826416 
	C511.048859,393.034760 512.215393,392.600250 513.000000,392.000000 
z"/>
<path fill="#F8F5FB" opacity="1.000000" stroke="none" 
	d="
M1.000000,84.468658 
	C1.615667,83.849564 2.690403,83.835564 2.781465,83.529198 
	C8.790143,63.313328 23.932337,57.563866 43.019245,57.993004 
	C45.003693,58.037617 46.990051,57.996925 49.746765,58.268738 
	C52.496834,58.662285 54.475624,58.887585 56.454498,58.888283 
	C110.483612,58.907345 164.512726,58.899105 218.541840,58.911472 
	C223.026459,58.912498 227.511047,59.026913 231.955017,59.430347 
	C231.712585,60.218311 231.612778,60.761532 231.294098,61.096622 
	C223.584793,69.203331 215.802475,77.241493 208.169693,85.419273 
	C206.803879,86.882584 206.039017,88.906784 204.534943,90.755737 
	C192.714615,90.919525 181.356018,90.999596 169.534195,91.003731 
	C135.264862,90.915283 101.458588,90.834023 67.652763,90.922760 
	C53.350349,90.960304 41.734070,100.540359 39.954632,114.649879 
	C38.816498,123.674370 39.209572,132.912643 39.204304,142.055237 
	C39.191452,164.363602 39.346191,186.672058 39.331779,209.440613 
	C39.296280,229.600830 39.362469,249.300919 39.329674,269.434692 
	C39.141079,272.245575 39.051472,274.622772 38.620277,277.038086 
	C36.876354,278.193634 35.357040,279.192902 34.090710,280.447540 
	C25.976334,288.487030 17.850716,296.517822 9.901044,304.718445 
	C8.448531,306.216827 7.787124,308.482086 6.760522,310.393341 
	C5.676868,309.807098 4.593214,309.220886 3.509560,308.634644 
	C3.339706,304.205475 3.340105,299.759979 2.918407,295.354919 
	C2.743272,293.525482 1.666662,291.782379 0.999998,290.000000 
	C1.000000,221.645767 1.000000,153.291550 1.000000,84.468658 
z"/>
<path fill="#F5EEFB" opacity="1.000000" stroke="none" 
	d="
M0.999998,290.468658 
	C1.666662,291.782379 2.743272,293.525482 2.918407,295.354919 
	C3.340105,299.759979 3.339706,304.205475 3.509560,308.634644 
	C4.593214,309.220886 5.676868,309.807098 6.760522,310.393341 
	C7.787124,308.482086 8.448531,306.216827 9.901044,304.718445 
	C17.850716,296.517822 25.976334,288.487030 34.090710,280.447540 
	C35.357040,279.192902 36.876354,278.193634 38.701416,277.500946 
	C39.226482,289.611847 39.328823,301.298035 39.330723,313.444580 
	C39.243855,324.307739 39.257420,334.710632 39.180943,345.557037 
	C39.071136,360.896149 39.008030,375.791901 39.080894,390.687012 
	C39.091179,392.789398 39.764923,394.888550 40.123566,397.356873 
	C41.688751,400.844635 43.261951,403.964691 44.984016,407.385010 
	C47.024071,409.480347 48.915260,411.275452 50.942024,413.304321 
	C51.408607,413.956299 51.739628,414.374512 52.023071,415.154053 
	C50.146477,418.014130 48.562862,420.746613 46.444878,422.970062 
	C38.376179,431.440613 30.135059,439.746948 21.958370,448.114624 
	C12.041831,444.453583 6.313494,436.982910 2.964764,427.313354 
	C2.721263,426.610229 2.090235,426.041321 1.319691,425.705017 
	C1.000000,380.979095 1.000000,335.958221 0.999998,290.468658 
z"/>
<path fill="#66E0DA" opacity="1.000000" stroke="none" 
	d="
M513.000000,391.531342 
	C512.215393,392.600250 511.048859,393.034760 510.705383,393.826416 
	C507.406342,401.428986 502.095551,407.115082 494.153992,410.744202 
	C493.323883,408.669098 492.984589,406.862274 493.026672,405.064362 
	C493.655945,378.168793 494.259399,351.271973 495.098541,324.382660 
	C495.204590,320.984070 496.402191,317.553864 497.535431,314.291595 
	C497.890411,313.269745 499.693207,312.750824 500.833282,312.001648 
	C502.220062,318.266022 503.770294,324.499573 504.957886,330.801483 
	C507.108002,342.211029 509.028748,353.663727 511.105591,365.087463 
	C511.206726,365.643616 511.885254,366.094788 512.647461,366.297424 
	C513.000000,374.354218 513.000000,382.708466 513.000000,391.531342 
z"/>
<path fill="#F3E9FB" opacity="1.000000" stroke="none" 
	d="
M456.822266,76.080887 
	C457.553375,77.819092 458.284485,79.557297 459.083679,82.045609 
	C459.741302,85.538414 460.330780,88.281097 460.850708,91.452629 
	C460.738953,93.614479 460.696686,95.347488 460.465057,97.320068 
	C460.447174,98.683403 460.618713,99.807167 460.902771,101.198036 
	C461.053192,101.654640 461.091095,101.844124 461.069366,102.496979 
	C460.962555,116.567734 460.916687,130.175125 460.867859,143.782516 
	C460.792236,164.853714 460.714539,185.924911 460.295166,207.003799 
	C458.481232,207.994949 456.808502,208.774231 455.570740,209.994659 
	C446.816376,218.626541 438.219299,227.419174 429.392334,235.975098 
	C427.875946,237.444931 425.501770,238.029816 423.498718,238.630371 
	C423.307648,236.492584 423.141663,234.747940 423.047791,232.538971 
	C423.071381,211.049423 423.022888,190.024216 423.047302,168.535034 
	C423.133240,151.917572 423.239502,135.763123 423.080963,119.611282 
	C423.049133,116.368271 422.010773,113.135147 421.358002,109.534424 
	C416.725311,98.624191 409.078857,91.892838 397.374664,91.063049 
	C390.285309,90.560440 383.126251,91.041283 375.548676,91.008423 
	C372.064117,90.846428 369.029419,90.756287 365.996277,90.305237 
	C366.984955,88.143204 367.638794,86.020081 369.015411,84.595306 
	C375.918945,77.450508 383.046173,70.522354 390.005157,63.430099 
	C391.221771,62.190151 392.010406,60.530235 393.463715,59.019218 
	C402.287750,58.893566 410.644714,58.812973 419.462280,58.806480 
	C433.982208,57.796146 445.924133,61.800274 454.757385,73.332298 
	C455.022827,73.678864 455.589661,73.794571 456.015961,74.017929 
	C456.015961,74.017921 455.989716,74.011520 455.941589,74.300896 
	C456.203064,75.087143 456.512695,75.584007 456.822266,76.080887 
z"/>
<path fill="#FFAA3A" opacity="1.000000" stroke="none" 
	d="
M231.995651,59.088646 
	C227.511047,59.026913 223.026459,58.912498 218.541840,58.911472 
	C164.512726,58.899105 110.483612,58.907345 56.454498,58.888283 
	C54.475624,58.887585 52.496834,58.662285 50.208115,58.247925 
	C55.825172,49.122982 63.247379,41.852737 74.165749,40.579685 
	C81.434517,39.732166 88.958344,40.619022 96.328323,41.217987 
	C103.971901,41.839195 111.565361,43.067677 119.184814,43.997257 
	C130.052887,45.323177 140.918533,46.672943 151.797104,47.907833 
	C158.801453,48.702938 165.836182,49.230053 172.841171,50.020164 
	C183.885376,51.265877 194.912628,52.661240 205.953735,53.935425 
	C212.306046,54.668510 218.667740,55.326420 225.032043,55.948112 
	C232.383362,56.666225 239.742188,57.307266 247.566681,58.165207 
	C248.035583,58.348640 248.106339,58.593426 247.624115,58.658665 
	C242.093140,58.845486 237.044403,58.967064 231.995651,59.088646 
z"/>
<path fill="#FF7D4B" opacity="1.000000" stroke="none" 
	d="
M473.008911,83.166611 
	C487.861572,85.853470 498.779877,93.436295 502.091949,108.769943 
	C503.459839,115.102783 503.028809,121.940720 502.647827,128.504333 
	C502.203613,136.156891 500.935760,143.762756 499.994263,151.385040 
	C499.015045,159.312973 497.998810,167.236328 496.565857,175.490753 
	C495.724518,174.978821 495.148529,174.178696 494.931885,173.290894 
	C487.603119,143.254623 480.308502,113.210007 473.008911,83.166611 
z"/>
<path fill="#95E6AF" opacity="1.000000" stroke="none" 
	d="
M419.001709,58.732376 
	C410.644714,58.812973 402.287750,58.893566 393.064941,58.974236 
	C391.133362,58.896500 390.067657,58.818687 389.002380,58.367043 
	C391.884888,52.942410 394.811157,47.916203 397.635712,42.833458 
	C400.149078,38.310696 402.549744,33.725307 405.000183,29.167568 
	C414.818115,26.623569 424.563873,25.570087 434.100403,31.264523 
	C429.989014,38.641365 425.704651,45.273766 421.651855,52.044754 
	C420.436523,54.075264 419.867065,56.492374 419.001709,58.732376 
z"/>
<path fill="#9BE6AA" opacity="1.000000" stroke="none" 
	d="
M404.596222,29.102530 
	C402.549744,33.725307 400.149078,38.310696 397.635712,42.833458 
	C394.811157,47.916203 391.884888,52.942410 388.538086,58.441216 
	C377.382111,58.840878 366.690887,58.792534 356.000732,58.370453 
	C357.538879,54.957481 358.984222,51.867313 360.635132,48.891159 
	C363.011749,44.606663 365.537781,40.405060 368.000061,36.168083 
	C380.064148,33.791222 392.128204,31.414360 404.596222,29.102530 
z"/>
<path fill="#A3E8A2" opacity="1.000000" stroke="none" 
	d="
M367.592529,36.103737 
	C365.537781,40.405060 363.011749,44.606663 360.635132,48.891159 
	C358.984222,51.867313 357.538879,54.957481 355.536469,58.443420 
	C341.049561,58.843777 327.027924,58.797424 313.012512,58.396660 
	C315.012695,53.749622 317.006683,49.456997 319.000671,45.164364 
	C332.695587,42.603920 346.391510,40.048782 360.084503,37.477985 
	C362.457703,37.032425 364.818451,36.520603 367.592529,36.103737 
z"/>
<path fill="#8EE5B6" opacity="1.000000" stroke="none" 
	d="
M419.462280,58.806480 
	C419.867065,56.492374 420.436523,54.075264 421.651855,52.044754 
	C425.704651,45.273766 429.989014,38.641365 434.303528,31.548779 
	C445.171478,35.264950 450.250824,44.046997 452.881042,54.448116 
	C454.424591,60.551918 454.994232,66.902000 456.008972,73.579613 
	C455.589661,73.794571 455.022827,73.678864 454.757385,73.332298 
	C445.924133,61.800274 433.982208,57.796146 419.462280,58.806480 
z"/>
<path fill="#75DFC5" opacity="1.000000" stroke="none" 
	d="
M486.001892,413.828857 
	C485.556305,413.877533 485.110748,413.926208 484.333130,413.446838 
	C484.000336,382.279022 483.999573,351.639252 483.999023,320.530884 
	C484.333069,296.610718 484.666748,273.159180 485.001770,249.707672 
	C485.011261,249.041626 484.800323,248.234787 485.098572,247.737213 
	C485.885895,246.423752 486.897064,245.244492 487.923767,244.368896 
	C488.118469,245.463089 488.208527,246.200226 488.298584,246.937347 
	C489.202637,250.966263 490.106720,254.995163 490.965302,259.874634 
	C490.613678,262.343628 490.099701,263.953583 490.033203,265.581787 
	C489.316833,283.133301 488.611908,300.685699 488.020721,318.241821 
	C487.289581,339.952820 486.572998,361.665253 486.043030,383.381775 
	C485.795502,393.525116 486.001495,403.679504 486.001892,413.828857 
z"/>
<path fill="#6BE1D4" opacity="1.000000" stroke="none" 
	d="
M500.907471,311.581390 
	C499.693207,312.750824 497.890411,313.269745 497.535431,314.291595 
	C496.402191,317.553864 495.204590,320.984070 495.098541,324.382660 
	C494.259399,351.271973 493.655945,378.168793 493.026672,405.064362 
	C492.984589,406.862274 493.323883,408.669098 493.794861,410.761780 
	C492.965424,411.631012 491.826935,412.210236 490.344666,412.353149 
	C490.332153,392.516174 490.632935,373.114960 491.004486,353.715057 
	C491.290131,338.800140 491.622803,323.885834 492.014954,308.973358 
	C492.271698,299.208649 492.638733,289.446320 493.048004,279.686737 
	C493.101593,278.408783 493.701111,277.153687 494.047729,275.887970 
	C495.698395,283.676117 497.404602,291.453064 498.976349,299.257111 
	C499.770386,303.199829 500.321014,307.191559 500.907471,311.581390 
z"/>
<path fill="#71E0CC" opacity="1.000000" stroke="none" 
	d="
M494.028229,275.465607 
	C493.701111,277.153687 493.101593,278.408783 493.048004,279.686737 
	C492.638733,289.446320 492.271698,299.208649 492.014954,308.973358 
	C491.622803,323.885834 491.290131,338.800140 491.004486,353.715057 
	C490.632935,373.114960 490.332153,392.516174 490.001648,412.374634 
	C488.905548,413.214600 487.808685,413.596802 486.356873,413.903931 
	C486.001495,403.679504 485.795502,393.525116 486.043030,383.381775 
	C486.572998,361.665253 487.289581,339.952820 488.020721,318.241821 
	C488.611908,300.685699 489.316833,283.133301 490.033203,265.581787 
	C490.099701,263.953583 490.613678,262.343628 490.982422,260.302856 
	C492.032928,264.934753 493.020813,269.988983 494.028229,275.465607 
z"/>
<path fill="#FB6D43" opacity="1.000000" stroke="none" 
	d="
M472.612732,83.092819 
	C480.308502,113.210007 487.603119,143.254623 494.931885,173.290894 
	C495.148529,174.178696 495.724518,174.978821 496.485168,175.905029 
	C496.548920,180.363831 496.260437,184.737457 495.554443,189.475006 
	C494.452698,188.758728 493.437103,187.762039 493.140076,186.584152 
	C491.645508,180.656464 490.377228,174.672241 488.958618,168.724762 
	C484.079895,148.270538 479.125793,127.834190 474.297394,107.368141 
	C472.401337,99.331329 470.761322,91.234108 469.004700,83.164398 
	C470.075317,83.115944 471.145935,83.067482 472.612732,83.092819 
z"/>
<path fill="#AFE99C" opacity="1.000000" stroke="none" 
	d="
M318.607239,45.227081 
	C317.006683,49.456997 315.012695,53.749622 312.547607,58.469070 
	C290.753113,58.795071 269.429718,58.694248 248.106339,58.593426 
	C248.106339,58.593426 248.035583,58.348640 248.007233,58.224380 
	C256.939880,56.582722 265.911072,55.122665 274.859375,53.533817 
	C286.823517,51.409485 298.773376,49.204136 310.721039,46.988697 
	C313.237122,46.522144 315.717133,45.861176 318.607239,45.227081 
z"/>
<path fill="#F65F3D" opacity="1.000000" stroke="none" 
	d="
M468.685120,83.087898 
	C470.761322,91.234108 472.401337,99.331329 474.297394,107.368141 
	C479.125793,127.834190 484.079895,148.270538 488.958618,168.724762 
	C490.377228,174.672241 491.645508,180.656464 493.140076,186.584152 
	C493.437103,187.762039 494.452698,188.758728 495.488037,189.914276 
	C495.498718,193.527649 495.158295,197.065704 494.197205,200.658813 
	C492.719330,200.141373 491.862091,199.568893 491.004395,198.663681 
	C491.003387,197.887344 491.002930,197.443741 491.254150,196.762573 
	C491.201263,194.430191 491.045105,192.301010 490.569763,190.245667 
	C484.209137,162.742233 477.763947,135.258301 471.433655,107.747932 
	C469.477295,99.245918 467.803467,90.678886 466.000305,82.141617 
	C466.788696,82.431541 467.577118,82.721466 468.685120,83.087898 
z"/>
<path fill="#EA4E36" opacity="1.000000" stroke="none" 
	d="
M460.920258,91.023788 
	C460.330780,88.281097 459.741302,85.538414 459.174652,82.409157 
	C459.612274,82.025513 460.027039,82.028450 460.925720,82.313705 
	C461.939331,82.730675 462.469055,82.865318 463.007935,83.398331 
	C463.975250,87.310326 465.049377,90.796989 465.873322,94.341805 
	C472.275635,121.888016 478.629700,149.445435 484.775879,177.173523 
	C485.034088,177.899551 485.515228,178.451447 485.996765,179.336029 
	C485.997314,180.112259 485.997437,180.555832 485.728699,181.241455 
	C487.365295,190.579102 489.243256,199.680740 491.243622,208.755432 
	C491.365387,209.307724 492.458191,209.645950 493.099182,210.083771 
	C493.061310,210.816315 493.023407,211.548859 492.701416,212.641266 
	C492.417297,213.001114 491.986481,213.003525 491.624207,212.932037 
	C490.685944,211.922195 489.829285,211.052658 489.579590,210.034302 
	C487.975769,203.493256 486.668640,196.876358 484.949097,190.367584 
	C482.792053,182.202896 480.332764,174.118073 478.003052,165.624313 
	C478.000305,164.500916 477.998444,163.751984 477.975983,162.705902 
	C477.638031,161.938782 477.320709,161.468781 477.002686,160.665955 
	C477.000885,159.889359 476.999817,159.445602 476.977478,158.704865 
	C476.638702,157.938187 476.321167,157.468475 475.994324,156.598297 
	C475.322266,152.465424 474.659515,148.733017 474.220642,144.827225 
	C473.963440,144.102219 473.482330,143.550598 473.000366,142.665924 
	C472.998230,141.888779 472.996979,141.444702 473.264160,140.765121 
	C473.020020,137.827621 472.589966,135.106888 471.980896,132.426804 
	C469.087982,119.697243 466.185638,106.969383 463.157623,94.271690 
	C462.873199,93.079033 461.687500,92.101311 460.920258,91.023788 
z"/>
<path fill="#DA4033" opacity="1.000000" stroke="none" 
	d="
M472.995728,141.000626 
	C472.996979,141.444702 472.998230,141.888779 473.021576,142.962769 
	C473.361359,144.061981 473.679047,144.531296 473.996765,145.000610 
	C474.659515,148.733017 475.322266,152.465424 475.770203,156.771698 
	C476.036560,157.897659 476.517670,158.449738 476.998779,159.001831 
	C476.999817,159.445602 477.000885,159.889359 476.778625,160.839294 
	C477.035736,161.898010 477.516144,162.450531 477.996582,163.003052 
	C477.998444,163.751984 478.000305,164.500916 477.749939,165.860962 
	C482.283203,186.967896 487.068665,207.463715 491.854065,227.959549 
	C491.769135,228.260498 491.684204,228.561447 490.995483,228.881714 
	C489.910461,228.111816 489.184967,227.379959 488.984161,226.524872 
	C485.277740,210.740967 481.713043,194.923309 477.919952,179.160553 
	C477.004333,175.355515 475.377106,171.721695 473.931763,167.650513 
	C473.140411,164.529907 472.494415,161.767914 471.890076,158.599854 
	C471.013367,153.770981 470.094971,149.348206 469.168945,144.591553 
	C469.052917,143.826340 468.944580,143.394989 468.883728,142.611908 
	C468.624268,141.163193 468.317261,140.066193 468.027191,138.638657 
	C467.960938,137.875839 467.877747,137.443573 467.843872,136.675308 
	C467.611511,135.509888 467.329834,134.680466 467.056030,133.443970 
	C466.369415,130.020645 465.674927,127.004387 464.980042,123.608490 
	C464.912781,122.475494 464.845947,121.722122 464.823822,120.639832 
	C464.615631,119.715034 464.362732,119.119164 464.083069,118.126968 
	C463.725006,114.826591 463.393707,111.922531 463.428436,109.096191 
	C465.862091,117.271263 467.849945,125.390335 470.043488,133.453430 
	C470.748566,136.045059 471.996277,138.489075 472.995728,141.000626 
z"/>
<path fill="#F05638" opacity="1.000000" stroke="none" 
	d="
M484.998718,176.999390 
	C478.629700,149.445435 472.275635,121.888016 465.873322,94.341805 
	C465.049377,90.796989 463.975250,87.310326 463.007568,83.190681 
	C462.998077,82.584648 462.996582,82.169334 462.996582,82.169334 
	C463.749115,82.116936 464.501617,82.064537 465.627258,82.076874 
	C467.803467,90.678886 469.477295,99.245918 471.433655,107.747932 
	C477.763947,135.258301 484.209137,162.742233 490.569763,190.245667 
	C491.045105,192.301010 491.201263,194.430191 490.976257,196.517792 
	C488.963623,191.340164 487.480591,186.169769 485.997559,180.999390 
	C485.997437,180.555832 485.997314,180.112259 485.975403,179.038757 
	C485.635315,177.938995 485.317017,177.469193 484.998718,176.999390 
z"/>
<path fill="#D33A34" opacity="1.000000" stroke="none" 
	d="
M474.077118,168.009140 
	C475.377106,171.721695 477.004333,175.355515 477.919952,179.160553 
	C481.713043,194.923309 485.277740,210.740967 488.984161,226.524872 
	C489.184967,227.379959 489.910461,228.111816 490.763367,228.977951 
	C490.459381,235.007034 489.783722,240.959198 488.703308,246.924347 
	C488.208527,246.200226 488.118469,245.463089 487.957397,243.969193 
	C486.263306,235.140396 484.640228,227.068375 483.036499,218.578384 
	C481.365967,209.785370 479.676086,201.410324 477.986328,192.608765 
	C477.118652,187.377975 476.250885,182.573746 475.365387,177.355652 
	C474.924133,173.964264 474.500641,170.986694 474.077118,168.009140 
z"/>
<path fill="#E34434" opacity="1.000000" stroke="none" 
	d="
M491.924194,227.521912 
	C487.068665,207.463715 482.283203,186.967896 477.750824,166.235413 
	C480.332764,174.118073 482.792053,182.202896 484.949097,190.367584 
	C486.668640,196.876358 487.975769,203.493256 489.579590,210.034302 
	C489.829285,211.052658 490.685944,211.922195 491.627075,213.368713 
	C492.008392,215.627151 492.024536,217.377426 492.040680,219.127716 
	C492.025208,221.779892 492.009766,224.432083 491.924194,227.521912 
z"/>
<path fill="#EE5039" opacity="1.000000" stroke="none" 
	d="
M485.728699,181.241455 
	C487.480591,186.169769 488.963623,191.340164 490.724548,196.755341 
	C491.002930,197.443741 491.003387,197.887344 491.007538,199.024765 
	C491.958099,201.144806 492.904999,202.571045 493.851929,203.997269 
	C493.898010,204.761002 493.944061,205.524734 493.684662,206.896057 
	C493.270477,208.363281 493.161713,209.222885 493.052948,210.082504 
	C493.052948,210.082504 493.076355,210.043869 493.087769,210.063828 
	C492.458191,209.645950 491.365387,209.307724 491.243622,208.755432 
	C489.243256,199.680740 487.365295,190.579102 485.728699,181.241455 
z"/>
<path fill="#F05638" opacity="1.000000" stroke="none" 
	d="
M493.918091,203.634399 
	C492.904999,202.571045 491.958099,201.144806 491.008057,199.357483 
	C491.862091,199.568893 492.719330,200.141373 493.849731,200.889740 
	C494.076660,201.800919 494.030457,202.536240 493.918091,203.634399 
z"/>
<path fill="#EE5039" opacity="1.000000" stroke="none" 
	d="
M492.387085,218.913666 
	C492.024536,217.377426 492.008392,215.627151 491.989380,213.440186 
	C491.986481,213.003525 492.417297,213.001114 492.632690,213.001770 
	C492.809906,214.901505 492.771729,216.800552 492.387085,218.913666 
z"/>
<path fill="#F65F3D" opacity="1.000000" stroke="none" 
	d="
M493.363525,209.924011 
	C493.161713,209.222885 493.270477,208.363281 493.612183,207.273209 
	C493.788116,207.950348 493.731110,208.857925 493.363525,209.924011 
z"/>
<path fill="#F65F3D" opacity="1.000000" stroke="none" 
	d="
M462.673767,82.105019 
	C462.996582,82.169334 462.998077,82.584648 462.998413,82.792297 
	C462.469055,82.865318 461.939331,82.730675 461.228790,82.385437 
	C461.482300,82.130127 461.916626,82.085411 462.673767,82.105019 
z"/>
<path fill="#8EE5B6" opacity="1.000000" stroke="none" 
	d="
M456.902466,75.753708 
	C456.512695,75.584007 456.203064,75.087143 455.939148,74.287613 
	C456.317444,74.465477 456.650024,74.946007 456.902466,75.753708 
z"/>
<path fill="#F3E8FB" opacity="1.000000" stroke="none" 
	d="
M22.129868,448.460632 
	C30.135059,439.746948 38.376179,431.440613 46.444878,422.970062 
	C48.562862,420.746613 50.146477,418.014130 52.373055,415.251831 
	C55.514320,415.968475 58.258038,416.948700 61.366615,418.130310 
	C65.824028,418.502502 69.916580,418.673279 74.474335,418.898712 
	C82.959480,418.917877 90.979446,418.882355 99.464737,418.898499 
	C105.618874,418.918396 111.307693,418.886566 117.462891,418.908813 
	C127.953125,418.926819 137.976974,418.890747 148.466858,418.908020 
	C158.622910,418.927429 168.312943,418.893433 178.400177,418.910828 
	C179.862900,419.021942 180.928436,419.081757 181.952850,419.473083 
	C180.778351,421.199188 179.752167,422.699890 178.493881,423.970795 
	C171.268524,431.268646 163.932510,438.457977 156.778122,445.824066 
	C155.503693,447.136292 154.905502,449.105316 153.531372,450.838806 
	C122.030785,450.986908 90.993904,451.067261 59.957031,451.147614 
	C51.003288,451.099213 42.041798,451.250916 33.099579,450.904755 
	C29.478529,450.764587 25.899506,449.538574 22.129868,448.460632 
z"/>
<path fill="#FF6459" opacity="1.000000" stroke="none" 
	d="
M470.998779,417.160980 
	C470.332397,421.813080 469.763702,426.481812 468.977112,431.113495 
	C467.759155,438.285126 466.851624,445.553955 464.982880,452.560333 
	C462.067780,463.489990 448.946411,473.747498 437.132111,473.794922 
	C427.199921,473.834839 417.259491,472.107117 407.324707,471.141571 
	C400.157135,470.444946 392.987030,469.767609 385.828918,468.982452 
	C380.491241,468.397034 375.170990,467.652985 369.466949,466.572083 
	C370.412231,464.766693 371.701141,463.336365 373.061035,461.977051 
	C376.691040,458.348511 380.351562,454.750458 384.464386,451.071838 
	C399.030640,450.981262 413.134735,451.107300 427.233734,450.896698 
	C442.432281,450.669617 455.446869,440.421906 459.428131,425.840424 
	C460.123840,423.292419 460.505463,420.658630 461.368622,418.044678 
	C462.146210,417.946045 462.587280,417.867188 463.390503,417.820862 
	C465.164001,417.499695 466.575439,417.145935 468.358887,416.837311 
	C469.479340,416.901306 470.227783,416.920135 470.951111,416.997620 
	C470.926025,417.056213 470.998749,417.160980 470.998779,417.160980 
z"/>
<path fill="#FF6857" opacity="1.000000" stroke="none" 
	d="
M384.000000,451.140320 
	C380.351562,454.750458 376.691040,458.348511 373.061035,461.977051 
	C371.701141,463.336365 370.412231,464.766693 369.045929,466.499084 
	C361.168365,466.144257 353.324341,465.562866 345.506561,464.734375 
	C338.193848,463.959351 330.913239,462.885925 323.610687,462.009064 
	C312.403717,460.663391 301.201080,459.268250 289.975616,458.094940 
	C281.640961,457.223755 273.272980,456.671265 264.480988,455.724487 
	C264.042114,455.472198 264.069183,455.117188 264.485229,455.067627 
	C271.558929,453.737701 278.216553,452.457397 285.353394,451.123444 
	C318.555054,451.093323 351.277527,451.116821 384.000000,451.140320 
z"/>
<path fill="#95E5AD" opacity="1.000000" stroke="none" 
	d="
M127.998901,480.835632 
	C121.534531,482.224152 115.061485,483.573730 108.608040,485.011292 
	C100.905716,486.726959 93.203094,488.029449 85.308777,485.152100 
	C86.437691,482.901550 87.921654,481.454254 88.769844,479.699585 
	C92.436447,472.114777 98.605179,469.403198 106.748909,468.801453 
	C113.555527,468.298523 120.253189,466.320923 127.429535,464.996521 
	C136.240189,464.331543 144.620392,463.666382 153.439194,463.001221 
	C158.919296,463.667908 163.960800,464.334564 168.727173,465.283142 
	C159.649078,466.721161 150.852707,467.930908 142.041275,469.018524 
	C133.127655,470.118744 128.656616,473.817596 127.998901,480.835632 
z"/>
<path fill="#9CE5A4" opacity="1.000000" stroke="none" 
	d="
M126.999100,464.996338 
	C120.253189,466.320923 113.555527,468.298523 106.748909,468.801453 
	C98.605179,469.403198 92.436447,472.114777 88.769844,479.699585 
	C87.921654,481.454254 86.437691,482.901550 85.097649,484.801514 
	C73.445305,482.167511 66.217522,474.684906 62.672180,463.367371 
	C80.228264,463.002655 97.374344,462.875397 114.516060,463.092621 
	C118.684441,463.145416 122.838470,464.331390 126.999100,464.996338 
z"/>
<path fill="#8DE4B4" opacity="1.000000" stroke="none" 
	d="
M128.419205,480.908875 
	C128.656616,473.817596 133.127655,470.118744 142.041275,469.018524 
	C150.852707,467.930908 159.649078,466.721161 169.184418,465.282349 
	C182.112793,464.666504 194.307846,464.266876 206.506134,464.086151 
	C207.990936,464.064148 209.493195,465.219696 210.987366,465.829529 
	C197.449997,468.314484 183.911316,470.792267 170.375641,473.286438 
	C158.271622,475.516785 146.170868,477.764923 134.068817,480.006104 
	C132.325256,480.328949 130.582596,480.656647 128.419205,480.908875 
z"/>
<path fill="#55BB92" opacity="1.000000" stroke="none" 
	d="
M284.874207,451.177063 
	C278.216553,452.457397 271.558929,453.737701 264.193481,454.757202 
	C262.349274,454.331390 261.214142,454.032410 260.076172,454.020966 
	C224.541092,453.664642 189.006332,453.224182 153.470245,453.037628 
	C122.645477,452.875854 91.819168,453.006592 60.786427,453.005493 
	C60.579315,453.002960 60.165180,453.013000 60.165180,453.013000 
	C60.106754,452.600128 60.048325,452.187225 59.973465,451.460999 
	C90.993904,451.067261 122.030785,450.986908 153.995880,450.908661 
	C193.281189,450.864410 231.638275,450.817993 270.456757,450.841156 
	C275.570160,450.999481 280.222198,451.088257 284.874207,451.177063 
z"/>
<path fill="#6FD6B4" opacity="1.000000" stroke="none" 
	d="
M480.005341,414.837006 
	C478.909821,415.220245 477.814331,415.603485 476.360168,415.459961 
	C476.000519,377.955475 475.999573,340.977753 476.220337,303.852234 
	C476.293884,303.136322 476.145721,302.568146 475.997986,301.536835 
	C475.998138,297.049713 475.997864,293.025757 476.289551,288.703186 
	C476.721039,285.953796 476.831909,283.500916 477.006317,281.052612 
	C477.316437,276.699860 477.665039,272.349915 478.248779,267.999207 
	C478.667480,267.999756 478.834961,267.999878 479.002014,268.468689 
	C479.334778,291.624878 479.667999,314.312439 480.000824,337.468658 
	C480.002045,363.570557 480.003693,389.203766 480.005341,414.837006 
z"/>
<path fill="#67C695" opacity="1.000000" stroke="none" 
	d="
M60.993538,453.008057 
	C91.819168,453.006592 122.645477,452.875854 153.470245,453.037628 
	C189.006332,453.224182 224.541092,453.664642 260.076172,454.020966 
	C261.214142,454.032410 262.349274,454.331390 263.777466,454.806763 
	C264.069183,455.117188 264.042114,455.472198 264.033478,455.650024 
	C260.930908,456.464752 257.836975,457.101654 254.265015,457.651825 
	C253.533264,457.667450 253.279572,457.769806 253.025879,457.872131 
	C252.570557,457.919067 252.115234,457.966034 251.219940,457.554474 
	C249.090683,456.731476 247.402008,456.052277 245.712051,456.049042 
	C214.141022,455.988831 182.569824,456.008911 150.530136,456.008789 
	C120.339722,456.021179 90.617851,456.036926 60.895977,456.052704 
	C60.895977,456.052704 60.962498,456.007050 60.975708,455.661377 
	C60.990456,454.546478 60.991997,453.777252 60.993538,453.008057 
z"/>
<path fill="#66CEAC" opacity="1.000000" stroke="none" 
	d="
M475.997559,289.001801 
	C475.997864,293.025757 475.998138,297.049713 475.776917,301.684845 
	C475.703156,302.864014 475.850891,303.432007 475.998657,304.000000 
	C475.999573,340.977753 476.000519,377.955475 476.005188,415.392151 
	C474.587524,416.240112 473.166138,416.629181 471.371765,417.089600 
	C470.998749,417.160980 470.926025,417.056213 471.130798,416.623413 
	C471.556610,414.233185 471.968109,412.275970 471.970398,410.318268 
	C472.009491,376.879669 471.997955,343.441071 472.000122,309.573639 
	C472.335114,304.451416 472.612244,299.753113 473.025665,295.066833 
	C473.205231,293.031403 473.665039,291.020721 474.330933,288.999390 
	C475.108704,289.000610 475.553131,289.001190 475.997559,289.001801 
z"/>
<path fill="#77D2A0" opacity="1.000000" stroke="none" 
	d="
M150.998672,456.012146 
	C182.569824,456.008911 214.141022,455.988831 245.712051,456.049042 
	C247.402008,456.052277 249.090683,456.731476 250.882874,457.479767 
	C245.318069,458.915894 239.650360,459.968201 233.132019,460.969025 
	C230.831161,460.612335 229.385834,460.067963 227.929977,460.038116 
	C209.031204,459.650787 190.131058,459.327881 171.230881,459.011719 
	C167.822769,458.954681 164.412949,459.001251 160.716461,458.714569 
	C158.685303,458.285980 156.890350,458.350739 155.213333,457.937134 
	C153.739822,457.573792 152.398422,456.674652 150.998672,456.012146 
z"/>
<path fill="#91DD9C" opacity="1.000000" stroke="none" 
	d="
M127.429535,464.996521 
	C122.838470,464.331390 118.684441,463.145416 114.516060,463.092621 
	C97.374344,462.875397 80.228264,463.002655 62.626060,463.005493 
	C61.790310,461.909790 61.412285,460.811768 61.556313,459.357330 
	C92.384155,459.334351 122.689941,459.667786 152.996887,460.376221 
	C152.998917,461.501190 152.999756,462.251221 153.000610,463.001221 
	C144.620392,463.666382 136.240189,464.331543 127.429535,464.996521 
z"/>
<path fill="#72DBBE" opacity="1.000000" stroke="none" 
	d="
M480.363953,414.906219 
	C480.003693,389.203766 480.002045,363.570557 480.394257,337.373413 
	C481.192108,332.993744 481.455261,329.155121 482.069214,325.373474 
	C482.316345,323.851196 483.332581,322.453735 483.998779,320.999481 
	C483.999573,351.639252 484.000336,382.279022 484.002319,413.376770 
	C482.909821,414.214966 481.816193,414.595215 480.363953,414.906219 
z"/>
<path fill="#87DDA8" opacity="1.000000" stroke="none" 
	d="
M153.439178,463.001221 
	C152.999756,462.251221 152.998917,461.501190 153.426849,460.375305 
	C156.238373,459.666260 158.621140,459.333130 161.003906,458.999969 
	C164.412949,459.001251 167.822769,458.954681 171.230881,459.011719 
	C190.131058,459.327881 209.031204,459.650787 227.929977,460.038116 
	C229.385834,460.067963 230.831161,460.612335 232.704041,460.981079 
	C226.011673,462.598450 218.896652,464.152252 211.384491,465.767761 
	C209.493195,465.219696 207.990936,464.064148 206.506134,464.086151 
	C194.307846,464.266876 182.112793,464.666504 169.459549,465.000488 
	C163.960800,464.334564 158.919296,463.667908 153.439178,463.001221 
z"/>
<path fill="#81D397" opacity="1.000000" stroke="none" 
	d="
M160.716461,458.714569 
	C158.621140,459.333130 156.238373,459.666260 153.425674,460.000305 
	C122.689941,459.667786 92.384155,459.334351 61.620304,459.002625 
	C61.104458,458.266296 61.046673,457.528290 60.942436,456.421509 
	C90.617851,456.036926 120.339722,456.021179 150.530136,456.008789 
	C152.398422,456.674652 153.739822,457.573792 155.213333,457.937134 
	C156.890350,458.350739 158.685303,458.285980 160.716461,458.714569 
z"/>
<path fill="#81D397" opacity="1.000000" stroke="none" 
	d="
M60.786427,453.005493 
	C60.991997,453.777252 60.990456,454.546478 60.969589,455.701233 
	C60.646851,455.295166 60.343433,454.503510 60.102600,453.362427 
	C60.165180,453.013000 60.579315,453.002960 60.786427,453.005493 
z"/>
<path fill="#77D2A0" opacity="1.000000" stroke="none" 
	d="
M253.261642,457.921570 
	C253.279572,457.769806 253.533264,457.667450 253.875793,457.709381 
	C253.964645,457.853668 253.497391,457.970978 253.261642,457.921570 
z"/>
<path fill="#25BFFA" opacity="1.000000" stroke="none" 
	d="
M39.431164,312.984253 
	C39.328823,301.298035 39.226482,289.611847 39.043003,277.462769 
	C39.051472,274.622772 39.141079,272.245575 39.671200,269.422668 
	C41.718063,268.172882 43.501118,267.600525 44.904480,266.530273 
	C68.892769,248.236572 92.893059,229.957306 116.735703,211.474915 
	C121.485924,207.792664 125.593712,203.281677 130.408981,199.124817 
	C153.236664,203.001053 171.511673,191.050659 178.764008,168.006683 
	C181.229782,167.033432 183.543289,166.399414 185.307587,165.048264 
	C215.420776,141.986542 245.479340,118.853325 275.485992,95.653145 
	C276.955841,94.516693 277.840424,92.623283 279.460999,91.005829 
	C295.615509,90.979012 311.306519,91.028725 326.990479,91.434090 
	C326.369659,92.692162 325.933472,93.820328 325.115784,94.463631 
	C309.355255,106.862938 293.618439,119.294243 277.737000,131.537643 
	C256.868744,147.625473 235.836456,163.500412 214.951935,179.567261 
	C182.508270,204.526764 150.154510,229.603104 117.715355,254.568436 
	C93.813515,272.963409 69.853203,291.282623 45.859871,309.558075 
	C43.953243,311.010315 41.584927,311.856445 39.431164,312.984253 
z"/>
<path fill="#1ACDFB" opacity="1.000000" stroke="none" 
	d="
M39.433456,208.980484 
	C39.346191,186.672058 39.191452,164.363602 39.204304,142.055237 
	C39.209572,132.912643 38.816498,123.674370 39.954632,114.649879 
	C41.734070,100.540359 53.350349,90.960304 67.652763,90.922760 
	C101.458588,90.834023 135.264862,90.915283 169.494507,91.343246 
	C163.912903,96.855766 157.850754,101.887642 151.921432,107.071457 
	C147.524460,110.915596 143.300064,114.957130 138.574188,118.998062 
	C113.232452,120.651016 97.530037,138.510590 98.303696,164.525818 
	C81.702003,177.597031 65.326340,190.370789 48.854317,203.019089 
	C45.918938,205.273071 42.583935,207.006622 39.433456,208.980484 
z"/>
<path fill="#F6EFFB" opacity="1.000000" stroke="none" 
	d="
M326.997528,91.078438 
	C311.306519,91.028725 295.615509,90.979012 278.997498,90.931374 
	C260.712738,90.983246 243.354965,91.033051 225.533905,91.008339 
	C218.379288,90.846550 211.687988,90.759277 204.996674,90.672005 
	C206.039017,88.906784 206.803879,86.882584 208.169693,85.419273 
	C215.802475,77.241493 223.584793,69.203331 231.294098,61.096622 
	C231.612778,60.761532 231.712585,60.218311 231.955017,59.430347 
	C237.044403,58.967064 242.093140,58.845486 247.624115,58.658665 
	C269.429718,58.694248 290.753113,58.795071 312.541382,58.823479 
	C327.027924,58.797424 341.049561,58.843777 355.535461,58.817162 
	C366.690887,58.792534 377.382111,58.840878 388.537598,58.815048 
	C390.067657,58.818687 391.133362,58.896500 392.597900,59.019295 
	C392.010406,60.530235 391.221771,62.190151 390.005157,63.430099 
	C383.046173,70.522354 375.918945,77.450508 369.015411,84.595306 
	C367.638794,86.020081 366.984955,88.143204 365.534607,90.389145 
	C352.380096,90.915451 339.688812,90.996941 326.997528,91.078438 
z"/>
<path fill="#21C5FA" opacity="1.000000" stroke="none" 
	d="
M39.331776,209.440613 
	C42.583935,207.006622 45.918938,205.273071 48.854317,203.019089 
	C65.326340,190.370789 81.702003,177.597031 98.449921,164.723755 
	C98.789291,164.581436 99.078880,164.978241 99.032349,165.377991 
	C100.252769,173.581772 103.124802,180.607315 109.025055,186.530701 
	C114.689575,190.408981 120.231277,193.980316 126.042389,197.731415 
	C127.540451,198.325073 128.769089,198.738953 129.997726,199.152832 
	C125.593712,203.281677 121.485924,207.792664 116.735703,211.474915 
	C92.893059,229.957306 68.892769,248.236572 44.904480,266.530273 
	C43.501118,267.600525 41.718063,268.172882 39.770187,268.988953 
	C39.362469,249.300919 39.296280,229.600830 39.331776,209.440613 
z"/>
<path fill="#1DC9FA" opacity="1.000000" stroke="none" 
	d="
M204.534943,90.755737 
	C211.687988,90.759277 218.379288,90.846550 225.477600,91.338135 
	C225.598663,92.134438 225.384918,92.619621 225.016434,92.904991 
	C210.274139,104.321762 195.590714,115.817009 180.707260,127.047104 
	C177.377701,129.559387 173.340546,131.133865 169.348404,132.982910 
	C164.413025,128.404068 160.118362,123.404953 152.952179,122.495255 
	C148.231583,121.067009 143.615189,119.988869 138.998795,118.910728 
	C143.300064,114.957130 147.524460,110.915596 151.921432,107.071457 
	C157.850754,101.887642 163.912903,96.855766 169.957748,91.419174 
	C181.356018,90.999596 192.714615,90.919525 204.534943,90.755737 
z"/>
<path fill="#2ABCF9" opacity="1.000000" stroke="none" 
	d="
M326.990479,91.434090 
	C339.688812,90.996941 352.380096,90.915451 365.533020,90.750061 
	C369.029419,90.756287 372.064117,90.846428 375.508179,91.348175 
	C375.007843,92.915962 374.289337,94.319595 373.160339,95.191910 
	C348.263153,114.428162 323.345703,133.638428 298.378693,152.783997 
	C277.880341,168.502853 257.279480,184.088043 236.783890,199.810486 
	C206.433838,223.092438 176.108459,246.406876 145.854889,269.813873 
	C142.294815,272.568298 139.253494,275.993225 135.724609,279.112732 
	C135.477524,279.118134 134.986542,279.175385 134.633850,279.052368 
	C127.419136,275.285797 120.164757,273.992401 112.386803,274.556122 
	C99.367470,275.499756 90.770752,283.118744 83.057343,292.661804 
	C68.850037,310.239136 54.386036,327.609009 39.837524,345.046234 
	C39.646038,345.027130 39.270988,345.113495 39.270988,345.113495 
	C39.257420,334.710632 39.243855,324.307739 39.330727,313.444580 
	C41.584927,311.856445 43.953243,311.010315 45.859871,309.558075 
	C69.853203,291.282623 93.813515,272.963409 117.715355,254.568436 
	C150.154510,229.603104 182.508270,204.526764 214.951935,179.567261 
	C235.836456,163.500412 256.868744,147.625473 277.737000,131.537643 
	C293.618439,119.294243 309.355255,106.862938 325.115784,94.463631 
	C325.933472,93.820328 326.369659,92.692162 326.990479,91.434090 
z"/>
<path fill="#98DFA8" opacity="1.000000" stroke="none" 
	d="
M44.835148,407.084778 
	C43.261951,403.964691 41.688751,400.844635 40.495163,397.359497 
	C42.230148,396.511475 43.808739,396.323364 44.902855,395.495209 
	C50.054287,391.595917 55.018036,387.449493 60.147942,383.520782 
	C89.611473,360.956238 119.140182,338.476471 148.542923,315.833130 
	C152.646851,312.672638 156.178513,308.769104 160.288788,305.298523 
	C162.814682,308.240662 165.026855,311.093872 166.913773,314.080994 
	C144.753418,330.950623 122.946098,347.722687 101.074699,364.410767 
	C82.366318,378.685394 63.584499,392.863831 44.835148,407.084778 
z"/>
<path fill="#A2E19F" opacity="1.000000" stroke="none" 
	d="
M159.975082,305.209564 
	C156.178513,308.769104 152.646851,312.672638 148.542923,315.833130 
	C119.140182,338.476471 89.611473,360.956238 60.147942,383.520782 
	C55.018036,387.449493 50.054287,391.595917 44.902855,395.495209 
	C43.808739,396.323364 42.230148,396.511475 40.503174,396.991821 
	C39.764923,394.888550 39.091179,392.789398 39.080894,390.687012 
	C39.008030,375.791901 39.071136,360.896149 39.180946,345.557037 
	C39.270988,345.113495 39.646038,345.027130 39.836227,345.484680 
	C40.027233,348.291260 40.028049,350.640350 40.014839,353.444000 
	C40.010281,356.926880 40.019745,359.955139 40.017910,363.445374 
	C40.013477,367.598541 40.020344,371.289734 40.018433,375.438782 
	C40.009663,379.113892 40.009663,382.331116 40.009663,386.357788 
	C42.188244,385.205048 43.428112,384.747528 44.436069,383.983887 
	C51.683727,378.492920 58.884094,372.939514 66.099892,367.406494 
	C92.990555,346.786865 119.911217,326.206055 146.727173,305.489746 
	C149.491852,303.353912 151.632401,300.410217 154.353287,298.015442 
	C156.421036,300.529510 158.198059,302.869537 159.975082,305.209564 
z"/>
<path fill="#8EDCB0" opacity="1.000000" stroke="none" 
	d="
M44.984016,407.385010 
	C63.584499,392.863831 82.366318,378.685394 101.074699,364.410767 
	C122.946098,347.722687 144.753418,330.950623 167.187408,314.238098 
	C169.214951,316.115662 170.643585,317.970062 171.928040,320.139221 
	C165.827148,325.455139 160.038376,330.674042 153.885040,335.420258 
	C125.546295,357.278778 97.143013,379.054169 68.670853,400.738617 
	C62.920681,405.117950 56.771622,408.973511 50.806458,413.070557 
	C48.915260,411.275452 47.024071,409.480347 44.984016,407.385010 
z"/>
<path fill="#87D9B6" opacity="1.000000" stroke="none" 
	d="
M50.942028,413.304321 
	C56.771622,408.973511 62.920681,405.117950 68.670853,400.738617 
	C97.143013,379.054169 125.546295,357.278778 153.885040,335.420258 
	C160.038376,330.674042 165.827148,325.455139 172.208099,320.306885 
	C173.750015,321.466431 174.867645,322.773102 175.847885,324.380463 
	C171.167358,330.125885 166.624237,335.570557 161.706879,341.015656 
	C159.573959,341.865082 157.621613,342.456512 156.090225,343.607849 
	C149.613144,348.477692 143.289764,353.551208 136.858582,358.482941 
	C112.319107,377.300964 87.752335,396.083374 63.235111,414.930328 
	C62.284214,415.661316 61.737041,416.917480 61.001747,417.928955 
	C58.258038,416.948700 55.514320,415.968475 52.420624,414.890472 
	C51.739628,414.374512 51.408607,413.956299 50.942028,413.304321 
z"/>
<path fill="#2DB7F9" opacity="1.000000" stroke="none" 
	d="
M175.985291,324.079742 
	C174.867645,322.773102 173.750015,321.466431 172.352310,319.992126 
	C170.643585,317.970062 169.214951,316.115662 167.512665,314.104126 
	C165.026855,311.093872 162.814682,308.240662 160.288788,305.298523 
	C158.198059,302.869537 156.421036,300.529510 154.222885,297.720764 
	C152.237686,295.443695 150.673615,293.635376 148.976547,291.523804 
	C146.552444,288.891083 144.261353,286.561676 141.682678,284.057251 
	C139.587296,282.290619 137.779495,280.698944 135.971680,279.107300 
	C139.253494,275.993225 142.294815,272.568298 145.854889,269.813873 
	C176.108459,246.406876 206.433838,223.092438 236.783890,199.810486 
	C257.279480,184.088043 277.880341,168.502853 298.378693,152.783997 
	C323.345703,133.638428 348.263153,114.428162 373.160339,95.191910 
	C374.289337,94.319595 375.007843,92.915962 375.958008,91.420044 
	C383.126251,91.041283 390.285309,90.560440 397.374664,91.063049 
	C409.078857,91.892838 416.725311,98.624191 420.966644,109.582397 
	C419.444977,110.529175 418.073639,110.852165 417.051819,111.632706 
	C402.435547,122.797607 387.867218,134.025253 373.285797,145.235809 
	C352.008911,161.594055 330.730835,177.950714 309.034424,194.312332 
	C292.776184,192.411377 280.101746,197.777267 270.030579,210.242035 
	C253.943481,230.152496 237.479004,249.757599 221.248062,269.552460 
	C207.257156,286.615479 193.369446,303.763092 179.190125,321.038940 
	C177.957855,322.162994 176.971573,323.121368 175.985291,324.079742 
z"/>
<path fill="#EFDFFA" opacity="1.000000" stroke="none" 
	d="
M285.353394,451.123444 
	C280.222198,451.088257 275.570160,450.999481 270.464539,450.492584 
	C270.964630,448.592377 271.699982,446.896301 272.908051,445.663452 
	C279.987305,438.439117 287.235657,431.379944 294.275391,424.118134 
	C295.543671,422.809845 296.106720,420.817871 297.458160,419.088837 
	C302.283264,418.976074 306.645599,418.916046 311.473541,418.906982 
	C323.296539,418.922913 334.653931,418.887848 346.476562,418.904419 
	C356.964233,418.920898 366.986694,418.885712 377.474365,418.903961 
	C383.582275,418.971527 389.224945,419.002594 394.867554,418.996552 
	C410.692749,418.979553 422.716125,407.109314 423.331970,390.791107 
	C423.639496,367.508392 423.720398,344.575897 423.759033,321.643372 
	C423.760040,321.038635 423.300995,320.433136 423.092743,319.534637 
	C423.084930,318.851166 423.040863,318.461060 423.047974,317.600006 
	C423.115265,298.880096 423.096924,280.630981 423.163666,262.382172 
	C423.192169,254.595627 423.398376,246.809708 423.523804,239.023514 
	C425.501770,238.029816 427.875946,237.444931 429.392334,235.975098 
	C438.219299,227.419174 446.816376,218.626541 455.570740,209.994659 
	C456.808502,208.774231 458.481232,207.994949 460.386780,207.464630 
	C460.835175,275.973389 460.847992,344.029053 460.870728,412.084686 
	C460.871368,414.077972 460.975983,416.071198 461.032104,418.064453 
	C460.505463,420.658630 460.123840,423.292419 459.428131,425.840424 
	C455.446869,440.421906 442.432281,450.669617 427.233734,450.896698 
	C413.134735,451.107300 399.030640,450.981262 384.464417,451.071869 
	C351.277527,451.116821 318.555054,451.093323 285.353394,451.123444 
z"/>
<path fill="#31B3F8" opacity="1.000000" stroke="none" 
	d="
M309.453247,194.308060 
	C330.730835,177.950714 352.008911,161.594055 373.285797,145.235809 
	C387.867218,134.025253 402.435547,122.797607 417.051819,111.632706 
	C418.073639,110.852165 419.444977,110.529175 421.045135,109.945435 
	C422.010773,113.135147 423.049133,116.368271 423.080963,119.611282 
	C423.239502,135.763123 423.133240,151.917572 422.695984,168.573486 
	C420.842041,169.889313 419.295898,170.550308 418.000000,171.539185 
	C399.552795,185.615997 381.094299,199.678833 362.746674,213.884750 
	C357.545654,217.911728 352.692047,222.387390 347.415588,226.442123 
	C345.472870,224.472107 343.793671,222.717239 341.956299,220.658920 
	C337.851135,215.623795 333.904175,210.892136 329.818970,205.847656 
	C324.155914,199.598663 317.011353,196.580795 309.453247,194.308060 
z"/>
<path fill="#36ADF8" opacity="1.000000" stroke="none" 
	d="
M347.679138,226.657272 
	C352.692047,222.387390 357.545654,217.911728 362.746674,213.884750 
	C381.094299,199.678833 399.552795,185.615997 418.000000,171.539185 
	C419.295898,170.550308 420.842041,169.889313 422.623108,169.037430 
	C423.022888,190.024216 423.071381,211.049423 422.701538,232.576782 
	C415.839661,237.900757 409.419983,242.754868 402.946472,247.536148 
	C395.039368,253.376251 387.087067,259.155212 378.948059,264.921082 
	C378.741791,264.881592 378.326782,264.823242 378.199585,264.502930 
	C374.075562,259.411194 370.078766,254.639786 365.945221,249.564117 
	C361.855865,244.533936 357.903290,239.808029 353.829468,234.769318 
	C351.698517,231.856766 349.688843,229.257019 347.679138,226.657272 
z"/>
<path fill="#3CA7F7" opacity="1.000000" stroke="none" 
	d="
M379.154327,264.960602 
	C387.087067,259.155212 395.039368,253.376251 402.946472,247.536148 
	C409.419983,242.754868 415.839661,237.900757 422.629456,233.041107 
	C423.141663,234.747940 423.307648,236.492584 423.498718,238.630371 
	C423.398376,246.809708 423.192169,254.595627 423.163666,262.382172 
	C423.096924,280.630981 423.115265,298.880096 422.752075,317.436981 
	C419.993988,315.083649 417.582947,312.422424 415.074310,309.444824 
	C410.695618,304.020447 406.414490,298.912415 401.950653,293.524292 
	C397.852631,288.484894 393.937347,283.725586 389.887024,278.659912 
	C386.219421,273.889282 382.686890,269.424927 379.154327,264.960602 
z"/>
<path fill="#41B394" opacity="1.000000" stroke="none" 
	d="
M461.368591,418.044678 
	C460.975983,416.071198 460.871368,414.077972 460.870728,412.084686 
	C460.847992,344.029053 460.835175,275.973389 460.729309,207.456940 
	C460.714539,185.924911 460.792236,164.853714 460.867859,143.782516 
	C460.916687,130.175125 460.962555,116.567734 461.287720,102.780930 
	C462.064606,104.740509 462.563507,106.879494 463.062408,109.018478 
	C463.393707,111.922531 463.725006,114.826591 464.062256,118.464844 
	C464.305176,119.788940 464.542145,120.378853 464.779114,120.968758 
	C464.845947,121.722122 464.912781,122.475494 464.694305,123.913284 
	C464.272278,126.575508 464.016296,128.553284 464.015900,130.531113 
	C463.997131,224.015182 464.007355,317.499237 463.960693,410.983276 
	C463.959564,413.251801 463.352722,415.519958 463.028381,417.788300 
	C462.587280,417.867188 462.146210,417.946045 461.368591,418.044678 
z"/>
<path fill="#E34833" opacity="1.000000" stroke="none" 
	d="
M463.428436,109.096191 
	C462.563507,106.879494 462.064606,104.740509 461.347351,102.317566 
	C461.091095,101.844124 461.053192,101.654640 460.967651,100.815529 
	C460.831451,99.137436 460.742950,98.108971 460.654449,97.080498 
	C460.696686,95.347488 460.738953,93.614479 460.850708,91.452637 
	C461.687500,92.101311 462.873199,93.079033 463.157623,94.271690 
	C466.185638,106.969383 469.087982,119.697243 471.980896,132.426804 
	C472.589966,135.106888 473.020020,137.827621 473.264160,140.765121 
	C471.996277,138.489075 470.748566,136.045059 470.043488,133.453430 
	C467.849945,125.390335 465.862091,117.271263 463.428436,109.096191 
z"/>
<path fill="#EFDFFA" opacity="1.000000" stroke="none" 
	d="
M460.465057,97.320068 
	C460.742950,98.108971 460.831451,99.137436 460.855103,100.548416 
	C460.618713,99.807167 460.447174,98.683403 460.465057,97.320068 
z"/>
<path fill="#76DBB9" opacity="1.000000" stroke="none" 
	d="
M483.999023,320.530884 
	C483.332581,322.453735 482.316345,323.851196 482.069214,325.373474 
	C481.455261,329.155121 481.192108,332.993744 480.394653,336.904724 
	C479.667999,314.312439 479.334778,291.624878 479.292999,268.169647 
	C480.056274,252.881775 480.469147,238.359085 481.081604,223.844818 
	C481.150818,222.204361 482.344788,220.611359 483.017151,218.996353 
	C484.640228,227.068375 486.263306,235.140396 487.852753,243.612122 
	C486.897064,245.244492 485.885895,246.423752 485.098572,247.737213 
	C484.800323,248.234787 485.011261,249.041626 485.001770,249.707672 
	C484.666748,273.159180 484.333069,296.610718 483.999023,320.530884 
z"/>
<path fill="#E34833" opacity="1.000000" stroke="none" 
	d="
M474.220642,144.827240 
	C473.679047,144.531296 473.361359,144.061981 473.022461,143.295822 
	C473.482330,143.550598 473.963440,144.102219 474.220642,144.827240 
z"/>
<path fill="#E34434" opacity="1.000000" stroke="none" 
	d="
M476.977478,158.704849 
	C476.517670,158.449738 476.036560,157.897659 475.779541,157.172180 
	C476.321167,157.468475 476.638702,157.938187 476.977478,158.704849 
z"/>
<path fill="#E34434" opacity="1.000000" stroke="none" 
	d="
M477.975952,162.705917 
	C477.516144,162.450531 477.035736,161.898010 476.779358,161.172119 
	C477.320709,161.468781 477.638031,161.938782 477.975952,162.705917 
z"/>
<path fill="#EE5039" opacity="1.000000" stroke="none" 
	d="
M484.775848,177.173523 
	C485.317017,177.469193 485.635315,177.938995 485.974976,178.706085 
	C485.515228,178.451447 485.034088,177.899551 484.775848,177.173523 
z"/>
<path fill="#4EBB9A" opacity="1.000000" stroke="none" 
	d="
M463.390503,417.820862 
	C463.352722,415.519958 463.959564,413.251801 463.960693,410.983276 
	C464.007355,317.499237 463.997131,224.015182 464.015900,130.531113 
	C464.016296,128.553284 464.272278,126.575508 464.694763,124.292923 
	C465.674927,127.004387 466.369415,130.020645 467.032745,133.839600 
	C467.000641,135.431656 466.999725,136.221008 466.830200,137.392334 
	C466.459167,138.403488 466.080994,139.032288 466.079620,139.661911 
	C466.033569,160.477768 465.996918,181.293823 466.092743,202.109253 
	C466.097198,203.077667 467.332886,204.040421 467.995361,205.449341 
	C467.995026,208.259964 467.994415,210.627075 467.600647,213.091782 
	C466.805481,214.857849 466.033508,216.532059 466.059235,218.193893 
	C466.293182,233.292084 466.877594,248.387039 466.954071,263.484985 
	C467.105713,293.427612 466.981537,323.371582 467.042755,353.314850 
	C467.046631,355.210266 467.664948,357.104401 467.997681,359.467865 
	C467.994232,378.888458 467.990540,397.840302 467.986847,416.792175 
	C466.575439,417.145935 465.164001,417.499695 463.390503,417.820862 
z"/>
<path fill="#66CAA3" opacity="1.000000" stroke="none" 
	d="
M473.997559,288.998779 
	C473.665039,291.020721 473.205231,293.031403 473.025665,295.066833 
	C472.612244,299.753113 472.335114,304.451416 471.667236,309.572998 
	C470.887848,310.000397 470.443939,309.999573 470.000000,309.530212 
	C469.997986,277.374573 469.995941,245.687454 469.995697,213.531647 
	C469.998322,196.698929 469.946228,180.334457 470.080750,163.971527 
	C470.094421,162.311584 471.232239,160.660904 471.848389,159.005920 
	C472.494415,161.767914 473.140411,164.529907 473.931763,167.650513 
	C474.500641,170.986694 474.924133,173.964264 475.037964,177.586349 
	C474.485046,181.900833 474.036774,185.570465 474.030670,189.240799 
	C473.975616,222.493393 473.997925,255.746109 473.997559,288.998779 
z"/>
<path fill="#60C19A" opacity="1.000000" stroke="none" 
	d="
M471.890076,158.599854 
	C471.232239,160.660904 470.094421,162.311584 470.080750,163.971527 
	C469.946228,180.334457 469.998322,196.698929 469.699097,213.508438 
	C468.931702,213.634003 468.462738,213.314102 467.993805,212.994202 
	C467.994415,210.627075 467.995026,208.259964 467.997620,204.980026 
	C467.946625,185.019104 467.879974,165.970978 467.897034,146.922958 
	C467.897614,146.256729 468.731232,145.591248 469.176575,144.925415 
	C470.094971,149.348206 471.013367,153.770981 471.890076,158.599854 
z"/>
<path fill="#57C29D" opacity="1.000000" stroke="none" 
	d="
M469.168945,144.591553 
	C468.731232,145.591248 467.897614,146.256729 467.897034,146.922958 
	C467.879974,165.970978 467.946625,185.019104 467.997375,204.536514 
	C467.332886,204.040421 466.097198,203.077667 466.092743,202.109253 
	C465.996918,181.293823 466.033569,160.477768 466.079620,139.661911 
	C466.080994,139.032288 466.459167,138.403488 467.029175,137.391617 
	C467.396667,137.008926 467.794556,137.011307 467.794556,137.011307 
	C467.877747,137.443573 467.960938,137.875839 468.017426,138.996704 
	C468.272552,140.778076 468.554382,141.870865 468.836212,142.963638 
	C468.944580,143.394989 469.052917,143.826340 469.168945,144.591553 
z"/>
<path fill="#60C19A" opacity="1.000000" stroke="none" 
	d="
M468.883728,142.611908 
	C468.554382,141.870865 468.272552,140.778076 468.000488,139.327240 
	C468.317261,140.066193 468.624268,141.163193 468.883728,142.611908 
z"/>
<path fill="#60C19A" opacity="1.000000" stroke="none" 
	d="
M467.843872,136.675308 
	C467.794556,137.011307 467.396667,137.008926 467.197723,137.009644 
	C466.999725,136.221008 467.000641,135.431656 467.024841,134.246674 
	C467.329834,134.680466 467.611511,135.509888 467.843872,136.675308 
z"/>
<path fill="#4EBB9A" opacity="1.000000" stroke="none" 
	d="
M464.823822,120.639832 
	C464.542145,120.378853 464.305176,119.788940 464.089050,118.861160 
	C464.362732,119.119164 464.615631,119.715034 464.823822,120.639832 
z"/>
<path fill="#70D2AA" opacity="1.000000" stroke="none" 
	d="
M474.330933,288.999390 
	C473.997925,255.746109 473.975616,222.493393 474.030670,189.240799 
	C474.036774,185.570465 474.485046,181.900833 475.055664,178.000183 
	C476.250885,182.573746 477.118652,187.377975 477.979980,193.029083 
	C477.649017,196.826797 477.016479,199.781067 477.049194,202.727966 
	C477.290802,224.485733 477.665039,246.242020 477.997559,267.998779 
	C477.665039,272.349915 477.316437,276.699860 477.006317,281.052612 
	C476.831909,283.500916 476.721039,285.953796 476.289551,288.703186 
	C475.553131,289.001190 475.108704,289.000610 474.330933,288.999390 
z"/>
<path fill="#77D7B0" opacity="1.000000" stroke="none" 
	d="
M478.248779,267.999207 
	C477.665039,246.242020 477.290802,224.485733 477.049194,202.727966 
	C477.016479,199.781067 477.649017,196.826797 477.979858,193.455612 
	C479.676086,201.410324 481.365967,209.785370 483.036499,218.578384 
	C482.344788,220.611359 481.150818,222.204361 481.081604,223.844818 
	C480.469147,238.359085 480.056274,252.881775 479.293427,267.700989 
	C478.834961,267.999878 478.667480,267.999756 478.248779,267.999207 
z"/>
<path fill="#B9EA8C" opacity="1.000000" stroke="none" 
	d="
M347.415588,226.442123 
	C349.688843,229.257019 351.698517,231.856766 353.681824,235.062042 
	C351.930695,237.207718 350.290985,238.857880 348.466217,240.268707 
	C341.125641,245.944168 333.705383,251.516571 326.355194,257.179749 
	C302.210785,275.782562 278.104340,294.434784 253.943436,313.016113 
	C237.791138,325.438293 221.546722,337.740662 205.386765,350.152924 
	C178.585922,370.738251 151.810135,391.356323 125.053665,411.999268 
	C122.264885,414.150818 119.677391,416.563324 116.996506,418.854736 
	C111.307693,418.886566 105.618874,418.918396 99.605408,418.603668 
	C101.221779,415.777618 103.102112,413.247650 105.114372,410.827393 
	C113.698723,400.502502 122.322067,390.210022 131.146698,380.177673 
	C133.375626,379.650330 135.681915,379.240753 137.352615,377.985352 
	C145.291107,372.020081 153.019089,365.775818 160.890030,359.719299 
	C192.634460,335.292664 224.398972,310.892151 256.165833,286.494720 
	C278.874115,269.054382 301.584656,251.616867 324.323944,234.217041 
	C330.196472,229.723480 336.181274,225.376617 342.114502,220.962372 
	C343.793671,222.717239 345.472870,224.472107 347.415588,226.442123 
z"/>
<path fill="#B0E995" opacity="1.000000" stroke="none" 
	d="
M117.462891,418.908813 
	C119.677391,416.563324 122.264885,414.150818 125.053665,411.999268 
	C151.810135,391.356323 178.585922,370.738251 205.386765,350.152924 
	C221.546722,337.740662 237.791138,325.438293 253.943436,313.016113 
	C278.104340,294.434784 302.210785,275.782562 326.355194,257.179749 
	C333.705383,251.516571 341.125641,245.944168 348.466217,240.268707 
	C350.290985,238.857880 351.930695,237.207718 353.803101,235.374847 
	C357.903290,239.808029 361.855865,244.533936 365.788574,249.876617 
	C364.980713,251.346954 364.296051,252.334305 363.389557,253.034424 
	C342.824707,268.917053 322.263000,284.803955 301.643372,300.615295 
	C280.892853,316.527008 260.055267,332.325165 239.301086,348.232117 
	C213.424438,368.065186 187.583023,387.944366 161.753876,407.839294 
	C157.101517,411.422760 152.581802,415.178467 148.000824,418.854645 
	C137.976974,418.890747 127.953125,418.926819 117.462891,418.908813 
z"/>
<path fill="#A8E89D" opacity="1.000000" stroke="none" 
	d="
M148.466858,418.908020 
	C152.581802,415.178467 157.101517,411.422760 161.753876,407.839294 
	C187.583023,387.944366 213.424438,368.065186 239.301086,348.232117 
	C260.055267,332.325165 280.892853,316.527008 301.643372,300.615295 
	C322.263000,284.803955 342.824707,268.917053 363.389557,253.034424 
	C364.296051,252.334305 364.980713,251.346954 365.925354,250.180878 
	C370.078766,254.639786 374.075562,259.411194 377.867554,264.661957 
	C363.147522,276.407776 348.672791,287.726929 334.106232,298.926636 
	C317.965424,311.336792 301.708038,323.595306 285.559387,335.995331 
	C254.313171,359.988312 223.105240,384.031128 191.887817,408.061523 
	C187.241837,411.637878 182.630386,415.259033 178.002960,418.859436 
	C168.312943,418.893433 158.622910,418.927429 148.466858,418.908020 
z"/>
<path fill="#A0E7A4" opacity="1.000000" stroke="none" 
	d="
M178.400177,418.910797 
	C182.630386,415.259033 187.241837,411.637878 191.887817,408.061523 
	C223.105240,384.031128 254.313171,359.988312 285.559387,335.995331 
	C301.708038,323.595306 317.965424,311.336792 334.106232,298.926636 
	C348.672791,287.726929 363.147522,276.407776 377.994751,264.982269 
	C378.326782,264.823242 378.741791,264.881592 378.948059,264.921082 
	C382.686890,269.424927 386.219421,273.889282 389.730652,278.961792 
	C383.339905,284.599060 377.027222,289.702026 370.590881,294.643982 
	C346.797150,312.913330 322.950378,331.113617 299.146667,349.369995 
	C273.370453,369.139221 247.598465,388.914185 221.880539,408.759125 
	C217.770538,411.930511 213.953461,415.481506 209.534637,418.906067 
	C200.043518,419.017273 191.018738,419.079437 181.993958,419.141571 
	C180.928436,419.081757 179.862900,419.021942 178.400177,418.910797 
z"/>
<path fill="#F2E4FB" opacity="1.000000" stroke="none" 
	d="
M181.952850,419.473083 
	C191.018738,419.079437 200.043518,419.017273 210.000900,418.958130 
	C221.289856,418.927795 231.646194,418.894440 242.468735,418.911865 
	C253.957657,418.928589 264.980377,418.894562 276.469116,418.909271 
	C283.621857,419.019226 290.308594,419.080383 296.995361,419.141541 
	C296.106720,420.817871 295.543671,422.809845 294.275391,424.118134 
	C287.235657,431.379944 279.987305,438.439117 272.908051,445.663452 
	C271.699982,446.896301 270.964630,448.592377 270.003143,450.423035 
	C231.638275,450.817993 193.281189,450.864410 154.459595,450.840942 
	C154.905502,449.105316 155.503693,447.136292 156.778122,445.824066 
	C163.932510,438.457977 171.268524,431.268646 178.493881,423.970795 
	C179.752167,422.699890 180.778351,421.199188 181.952850,419.473083 
z"/>
<path fill="#80D7BC" opacity="1.000000" stroke="none" 
	d="
M61.366608,418.130341 
	C61.737041,416.917480 62.284214,415.661316 63.235111,414.930328 
	C87.752335,396.083374 112.319107,377.300964 136.858582,358.482941 
	C143.289764,353.551208 149.613144,348.477692 156.090225,343.607849 
	C157.621613,342.456512 159.573959,341.865082 161.549286,341.316711 
	C153.541870,351.417694 145.317825,361.217987 136.719589,371.017670 
	C134.463120,371.966492 132.380936,372.652618 130.729675,373.906311 
	C114.968933,385.872284 99.237396,397.877991 83.606743,410.013031 
	C80.184731,412.669708 77.196907,415.885651 74.009140,418.844025 
	C69.916580,418.673279 65.824028,418.502502 61.366608,418.130341 
z"/>
<path fill="#79D4C2" opacity="1.000000" stroke="none" 
	d="
M74.474335,418.898712 
	C77.196907,415.885651 80.184731,412.669708 83.606743,410.013031 
	C99.237396,397.877991 114.968933,385.872284 130.729675,373.906311 
	C132.380936,372.652618 134.463120,371.966492 136.645508,371.355713 
	C134.940826,374.431488 132.936005,377.168610 130.931198,379.905731 
	C122.322067,390.210022 113.698723,400.502502 105.114372,410.827393 
	C103.102112,413.247650 101.221779,415.777618 99.140083,418.551941 
	C90.979446,418.882355 82.959480,418.917877 74.474335,418.898712 
z"/>
<path fill="#5BC5A4" opacity="1.000000" stroke="none" 
	d="
M470.000000,309.998779 
	C470.443939,309.999573 470.887848,310.000397 471.664673,310.001831 
	C471.997955,343.441071 472.009491,376.879669 471.970398,410.318268 
	C471.968109,412.275970 471.556610,414.233185 471.155884,416.564819 
	C470.227783,416.920135 469.479340,416.901306 468.358887,416.837311 
	C467.990540,397.840302 467.994232,378.888458 468.290161,359.169922 
	C468.721558,344.157562 468.825836,329.911346 469.041870,315.666840 
	C469.070587,313.773071 469.666656,311.887909 470.000000,309.998779 
z"/>
<path fill="#70D2AA" opacity="1.000000" stroke="none" 
	d="
M476.220337,303.852234 
	C475.850891,303.432007 475.703156,302.864014 475.776489,302.148010 
	C476.145721,302.568146 476.293884,303.136322 476.220337,303.852234 
z"/>
<path fill="#22C4FA" opacity="1.000000" stroke="none" 
	d="
M169.629166,133.140106 
	C173.340546,131.133865 177.377701,129.559387 180.707260,127.047104 
	C195.590714,115.817009 210.274139,104.321762 225.016434,92.904991 
	C225.384918,92.619621 225.598663,92.134438 225.940887,91.412643 
	C243.354965,91.033051 260.712738,90.983246 278.533997,91.007904 
	C277.840424,92.623283 276.955841,94.516693 275.485992,95.653145 
	C245.479340,118.853325 215.420776,141.986542 185.307587,165.048264 
	C183.543289,166.399414 181.229782,167.033432 178.794495,167.541672 
	C178.548477,163.389099 178.679840,159.696045 178.859039,155.609100 
	C176.393585,148.906326 173.880295,142.597427 171.283661,135.997406 
	C170.676590,134.850876 170.152878,133.995499 169.629166,133.140106 
z"/>
<path fill="#FCB633" opacity="1.000000" stroke="none" 
	d="
M178.811188,156.002991 
	C178.679840,159.696045 178.548477,163.389099 178.386627,167.547150 
	C171.511673,191.050659 153.236664,203.001053 130.408981,199.124817 
	C128.769089,198.738953 127.540451,198.325073 126.185440,197.383713 
	C128.203629,194.813263 130.208649,192.594772 132.518066,190.759232 
	C140.409622,184.486969 148.328400,178.243042 156.389450,172.191650 
	C163.760406,166.658295 171.329437,161.388763 178.811188,156.002991 
z"/>
<path fill="#FDD746" opacity="1.000000" stroke="none" 
	d="
M138.574188,118.998062 
	C143.615189,119.988869 148.231583,121.067009 152.905457,122.852295 
	C151.892578,124.748100 150.969284,126.124771 149.728409,127.095451 
	C140.366745,134.418579 131.021194,141.766632 121.512726,148.896362 
	C114.153130,154.414825 106.565269,159.628860 99.078880,164.978241 
	C99.078880,164.978241 98.789291,164.581436 98.643066,164.383484 
	C97.530037,138.510590 113.232452,120.651016 138.574188,118.998062 
z"/>
<path fill="#FECE3F" opacity="1.000000" stroke="none" 
	d="
M99.032349,165.377991 
	C106.565269,159.628860 114.153130,154.414825 121.512726,148.896362 
	C131.021194,141.766632 140.366745,134.418579 149.728409,127.095451 
	C150.969284,126.124771 151.892578,124.748100 153.009674,123.202408 
	C160.118362,123.404953 164.413025,128.404068 169.348404,132.982910 
	C170.152878,133.995499 170.676590,134.850876 171.105225,136.356750 
	C157.325684,147.678940 143.599609,158.297897 129.973785,169.043930 
	C122.858902,174.655121 115.920395,180.489929 108.902229,186.223740 
	C103.124802,180.607315 100.252769,173.581772 99.032349,165.377991 
z"/>
<path fill="#FEC138" opacity="1.000000" stroke="none" 
	d="
M109.025055,186.530701 
	C115.920395,180.489929 122.858902,174.655121 129.973785,169.043930 
	C143.599609,158.297897 157.325684,147.678940 171.188583,136.647888 
	C173.880295,142.597427 176.393585,148.906326 178.859039,155.609100 
	C171.329437,161.388763 163.760406,166.658295 156.389450,172.191650 
	C148.328400,178.243042 140.409622,184.486969 132.518066,190.759232 
	C130.208649,192.594772 128.203629,194.813263 125.916031,197.203949 
	C120.231277,193.980316 114.689575,190.408981 109.025055,186.530701 
z"/>
<path fill="#CBEB7C" opacity="1.000000" stroke="none" 
	d="
M40.028862,352.989410 
	C40.028049,350.640350 40.027233,348.291260 40.027710,345.503784 
	C54.386036,327.609009 68.850037,310.239136 83.057343,292.661804 
	C90.770752,283.118744 99.367470,275.499756 112.386803,274.556122 
	C120.164757,273.992401 127.419136,275.285797 134.626740,279.400513 
	C133.239380,281.762970 131.739532,283.956726 129.737991,285.499603 
	C105.806740,303.946747 81.840294,322.348969 57.786026,340.635315 
	C52.050888,344.995270 45.957485,348.883972 40.028862,352.989410 
z"/>
<path fill="#C2E984" opacity="1.000000" stroke="none" 
	d="
M40.014839,353.444000 
	C45.957485,348.883972 52.050888,344.995270 57.786026,340.635315 
	C81.840294,322.348969 105.806740,303.946747 129.737991,285.499603 
	C131.739532,283.956726 133.239380,281.762970 134.979431,279.523499 
	C134.986542,279.175385 135.477524,279.118134 135.724609,279.112732 
	C137.779495,280.698944 139.587296,282.290619 141.640228,284.385742 
	C141.432327,285.569763 141.118210,286.429504 140.505676,286.904205 
	C129.643692,295.322052 118.737549,303.682861 107.856758,312.076447 
	C91.074226,325.022705 74.361298,338.060181 57.495789,350.897278 
	C51.867706,355.181030 45.862186,358.968872 40.029213,362.983429 
	C40.019745,359.955139 40.010281,356.926880 40.014839,353.444000 
z"/>
<path fill="#B6E78E" opacity="1.000000" stroke="none" 
	d="
M40.017914,363.445374 
	C45.862186,358.968872 51.867706,355.181030 57.495789,350.897278 
	C74.361298,338.060181 91.074226,325.022705 107.856758,312.076447 
	C118.737549,303.682861 129.643692,295.322052 140.505676,286.904205 
	C141.118210,286.429504 141.432327,285.569763 141.927795,284.560730 
	C144.261353,286.561676 146.552444,288.891083 148.816833,291.839630 
	C142.952347,297.052734 137.146042,301.687408 131.271423,306.233795 
	C103.156616,327.991882 75.040970,349.749023 46.859303,371.420227 
	C44.854656,372.961792 42.317013,373.810211 40.027206,374.980927 
	C40.020344,371.289734 40.013477,367.598541 40.017914,363.445374 
z"/>
<path fill="#ABE496" opacity="1.000000" stroke="none" 
	d="
M40.018433,375.438782 
	C42.317013,373.810211 44.854656,372.961792 46.859303,371.420227 
	C75.040970,349.749023 103.156616,327.991882 131.271423,306.233795 
	C137.146042,301.687408 142.952347,297.052734 148.949829,292.142883 
	C150.673615,293.635376 152.237686,295.443695 153.932144,297.546692 
	C151.632401,300.410217 149.491852,303.353912 146.727173,305.489746 
	C119.911217,326.206055 92.990555,346.786865 66.099892,367.406494 
	C58.884094,372.939514 51.683727,378.492920 44.436069,383.983887 
	C43.428112,384.747528 42.188244,385.205048 40.009663,386.357788 
	C40.009663,382.331116 40.009663,379.113892 40.018433,375.438782 
z"/>
<path fill="#C3EB83" opacity="1.000000" stroke="none" 
	d="
M131.146698,380.177673 
	C132.936005,377.168610 134.940826,374.431488 137.019714,371.356323 
	C145.317825,361.217987 153.541870,351.417694 161.923492,341.316345 
	C166.624237,335.570557 171.167358,330.125885 175.847900,324.380463 
	C176.971573,323.121368 177.957855,322.162994 179.603653,321.065491 
	C182.185196,320.069275 184.359573,319.543762 185.989883,318.303284 
	C200.754395,307.068756 215.410355,295.691711 230.123779,284.389862 
	C262.438049,259.568176 294.775696,234.776871 327.057922,209.913559 
	C328.269318,208.980591 329.001617,207.425613 329.957214,206.160492 
	C333.904175,210.892136 337.851135,215.623795 341.956299,220.658936 
	C336.181274,225.376617 330.196472,229.723480 324.323944,234.217041 
	C301.584656,251.616867 278.874115,269.054382 256.165833,286.494720 
	C224.398972,310.892151 192.634460,335.292664 160.890030,359.719299 
	C153.019089,365.775818 145.291107,372.020081 137.352615,377.985352 
	C135.681915,379.240753 133.375626,379.650330 131.146698,380.177673 
z"/>
<path fill="#CBEC7C" opacity="1.000000" stroke="none" 
	d="
M329.818970,205.847656 
	C329.001617,207.425613 328.269318,208.980591 327.057922,209.913559 
	C294.775696,234.776871 262.438049,259.568176 230.123779,284.389862 
	C215.410355,295.691711 200.754395,307.068756 185.989883,318.303284 
	C184.359573,319.543762 182.185196,320.069275 179.849640,320.899841 
	C193.369446,303.763092 207.257156,286.615479 221.248062,269.552460 
	C237.479004,249.757599 253.943481,230.152496 270.030579,210.242035 
	C280.101746,197.777267 292.776184,192.411377 309.034424,194.312332 
	C317.011353,196.580795 324.155914,199.598663 329.818970,205.847656 
z"/>
<path fill="#86E4BC" opacity="1.000000" stroke="none" 
	d="
M297.458160,419.088806 
	C290.308594,419.080383 283.621857,419.019226 276.514404,418.574585 
	C276.722168,417.464569 277.245514,416.599335 277.994568,416.032104 
	C290.783356,406.347687 303.671875,396.793671 316.395813,387.025085 
	C343.807739,365.980072 371.167969,344.867340 398.477631,323.689789 
	C404.201050,319.251495 409.615234,314.414490 415.171875,309.761200 
	C417.582947,312.422424 419.993988,315.083649 422.700928,317.907898 
	C423.040863,318.461060 423.084930,318.851166 423.074158,320.017029 
	C423.012024,324.122345 423.253876,327.479614 422.888245,330.769440 
	C422.715424,332.324036 421.741028,334.219147 420.515900,335.163330 
	C399.002411,351.742859 377.390717,368.194824 355.807159,384.683441 
	C343.175140,394.333588 330.557434,404.002441 317.927521,413.655365 
	C315.635132,415.407440 313.315125,417.123383 311.007904,418.856018 
	C306.645599,418.916046 302.283264,418.976074 297.458160,419.088806 
z"/>
<path fill="#7FE3C3" opacity="1.000000" stroke="none" 
	d="
M311.473541,418.906982 
	C313.315125,417.123383 315.635132,415.407440 317.927521,413.655365 
	C330.557434,404.002441 343.175140,394.333588 355.807159,384.683441 
	C377.390717,368.194824 399.002411,351.742859 420.515900,335.163330 
	C421.741028,334.219147 422.715424,332.324036 422.888245,330.769440 
	C423.253876,327.479614 423.012024,324.122345 423.037903,320.310364 
	C423.300995,320.433136 423.760040,321.038635 423.759033,321.643372 
	C423.720398,344.575897 423.639496,367.508392 423.297089,390.360352 
	C422.999268,388.852875 422.968567,387.425934 422.956787,385.530762 
	C422.975739,377.197723 422.975739,369.332916 422.975739,360.503876 
	C420.405975,362.171875 418.839386,363.041962 417.434753,364.122589 
	C397.518158,379.445343 377.631531,394.807068 357.716583,410.131958 
	C353.860992,413.098907 349.915405,415.948883 346.011292,418.852783 
	C334.653931,418.887848 323.296539,418.922913 311.473541,418.906982 
z"/>
<path fill="#78E2C9" opacity="1.000000" stroke="none" 
	d="
M346.476562,418.904419 
	C349.915405,415.948883 353.860992,413.098907 357.716583,410.131958 
	C377.631531,394.807068 397.518158,379.445343 417.434753,364.122589 
	C418.839386,363.041962 420.405975,362.171875 422.975739,360.503876 
	C422.975739,369.332916 422.975739,377.197723 422.595032,385.536865 
	C420.470337,386.884491 418.539795,387.511963 417.012512,388.670837 
	C406.629822,396.548981 396.351929,404.565063 385.994354,412.476562 
	C383.077972,414.704224 380.008423,416.731384 377.009125,418.850525 
	C366.986694,418.885712 356.964233,418.920898 346.476562,418.904419 
z"/>
<path fill="#73E1CF" opacity="1.000000" stroke="none" 
	d="
M377.474365,418.903931 
	C380.008423,416.731384 383.077972,414.704224 385.994354,412.476562 
	C396.351929,404.565063 406.629822,396.548981 417.012512,388.670837 
	C418.539795,387.511963 420.470337,386.884491 422.576111,386.005066 
	C422.968567,387.425934 422.999268,388.852875 423.064819,390.710602 
	C422.716125,407.109314 410.692749,418.979553 394.867554,418.996552 
	C389.224945,419.002594 383.582275,418.971527 377.474365,418.903931 
z"/>
<path fill="#98E6AC" opacity="1.000000" stroke="none" 
	d="
M242.002533,418.861084 
	C231.646194,418.894440 221.289856,418.927795 210.467224,418.909119 
	C213.953461,415.481506 217.770538,411.930511 221.880539,408.759125 
	C247.598465,388.914185 273.370453,369.139221 299.146667,349.369995 
	C322.950378,331.113617 346.797150,312.913330 370.590881,294.643982 
	C377.027222,289.702026 383.339905,284.599060 389.865692,279.268127 
	C393.937347,283.725586 397.852631,288.484894 401.787720,293.842499 
	C400.669098,295.647919 399.670074,297.036530 398.370972,298.034515 
	C383.549683,309.420074 368.678040,320.740051 353.829102,332.089630 
	C337.664398,344.444824 321.473938,356.766693 305.359467,369.187134 
	C285.839722,384.232330 266.380432,399.356079 246.919128,414.476898 
	C245.189178,415.821045 243.637192,417.394257 242.002533,418.861084 
z"/>
<path fill="#8FE5B4" opacity="1.000000" stroke="none" 
	d="
M242.468719,418.911865 
	C243.637192,417.394257 245.189178,415.821045 246.919128,414.476898 
	C266.380432,399.356079 285.839722,384.232330 305.359467,369.187134 
	C321.473938,356.766693 337.664398,344.444824 353.829102,332.089630 
	C368.678040,320.740051 383.549683,309.420074 398.370972,298.034515 
	C399.670074,297.036530 400.669098,295.647919 401.970459,294.122559 
	C406.414490,298.912415 410.695618,304.020447 415.074310,309.444824 
	C409.615234,314.414490 404.201050,319.251495 398.477631,323.689789 
	C371.167969,344.867340 343.807739,365.980072 316.395813,387.025085 
	C303.671875,396.793671 290.783356,406.347687 277.994568,416.032104 
	C277.245514,416.599335 276.722168,417.464569 276.048431,418.525818 
	C264.980377,418.894562 253.957657,418.928589 242.468719,418.911865 
z"/>
<path fill="#57C29D" opacity="1.000000" stroke="none" 
	d="
M470.000000,309.530243 
	C469.666656,311.887909 469.070587,313.773071 469.041870,315.666840 
	C468.825836,329.911346 468.721558,344.157562 468.289917,358.701172 
	C467.664948,357.104401 467.046631,355.210266 467.042755,353.314850 
	C466.981537,323.371582 467.105713,293.427612 466.954071,263.484985 
	C466.877594,248.387039 466.293182,233.292084 466.059235,218.193893 
	C466.033508,216.532059 466.805481,214.857849 467.600647,213.091797 
	C468.462738,213.314102 468.931702,213.634003 469.697266,213.977112 
	C469.995941,245.687454 469.997986,277.374573 470.000000,309.530243 
z"/>
</svg>