<?xml version="1.0" standalone="no"?>
<!DOCTYPE svg PUBLIC "-//W3C//DTD SVG 20010904//EN"
 "http://www.w3.org/TR/2001/REC-SVG-20010904/DTD/svg10.dtd">
<svg version="1.0" xmlns="http://www.w3.org/2000/svg"
 width="512.000000pt" height="512.000000pt" viewBox="0 0 512.000000 512.000000"
 preserveAspectRatio="xMidYMid meet">

<g transform="translate(0.000000,512.000000) scale(0.100000,-0.100000)"
fill="#000000" stroke="none">
<path d="M1054 4947 c-52 -20 -91 -55 -113 -100 -20 -41 -21 -59 -21 -384 l0
-340 -102 -5 c-124 -6 -190 -30 -244 -90 -63 -70 -78 -117 -78 -246 -1 -101 1
-115 18 -128 25 -18 47 -18 72 0 16 12 20 30 24 129 6 127 15 150 80 195 29
19 46 22 131 22 l99 0 0 -275 0 -275 -267 0 -268 0 -60 -29 c-93 -43 -152
-127 -162 -225 -7 -74 272 -2799 292 -2853 22 -57 83 -123 141 -153 l49 -25
1940 0 1940 0 55 31 c62 35 110 91 134 156 20 56 250 2311 243 2384 -10 95
-76 186 -166 228 -43 19 -66 21 -318 24 l-273 3 0 505 0 506 104 -4 c113 -3
136 -13 180 -72 20 -26 21 -44 26 -370 5 -372 6 -376 61 -376 59 0 61 12 57
382 -3 326 -4 334 -27 385 -50 111 -142 164 -298 171 l-101 5 -4 126 c-3 115
-5 130 -30 171 -14 25 -131 149 -260 276 -201 200 -240 233 -282 248 -45 14
-164 16 -1295 15 -928 0 -1254 -4 -1277 -12z m2396 -369 c5 -293 5 -291 74
-342 26 -20 45 -21 294 -26 l267 -5 3 -607 2 -608 -1207 0 c-1156 0 -1210 1
-1249 19 -63 29 -104 102 -104 186 0 40 -51 144 -86 177 -67 61 -106 73 -266
76 l-148 3 0 663 c0 662 0 663 21 690 12 15 31 32 43 36 11 5 545 8 1186 7
l1165 -2 5 -267z m-2113 -1270 c48 -32 70 -74 82 -159 5 -36 16 -81 24 -101
23 -55 91 -123 150 -149 l52 -24 1547 -5 1547 -5 28 -21 c52 -39 73 -81 73
-148 0 -34 -52 -564 -114 -1179 -110 -1076 -116 -1119 -140 -1161 -16 -27 -40
-51 -63 -62 -37 -18 -101 -19 -1922 -22 -1345 -1 -1895 1 -1924 9 -51 14 -102
63 -116 114 -6 22 -74 656 -150 1408 -113 1113 -137 1376 -128 1409 13 51 63
102 114 116 24 6 198 10 469 9 l430 -2 41 -27z"/>
<path d="M1312 4568 c-17 -17 -15 -64 4 -82 14 -14 84 -16 628 -16 581 0 614
1 629 18 21 23 22 56 1 76 -14 14 -85 16 -633 16 -466 0 -620 -3 -629 -12z"/>
<path d="M1322 4164 c-31 -21 -30 -69 2 -89 21 -14 66 -15 336 -13 295 3 312
4 326 22 19 27 18 52 -6 76 -19 19 -33 20 -328 20 -262 0 -311 -2 -330 -16z"/>
<path d="M2242 4164 c-30 -20 -30 -68 0 -88 20 -14 79 -16 453 -16 473 0 478
1 483 57 6 63 8 63 -478 63 -378 0 -438 -2 -458 -16z"/>
<path d="M1312 3758 c-17 -17 -15 -64 4 -82 14 -14 91 -16 698 -16 649 0 684
1 699 18 22 24 21 55 -1 75 -17 16 -80 17 -703 17 -520 0 -688 -3 -697 -12z"/>
<path d="M2912 3758 c-17 -17 -15 -64 4 -82 14 -14 68 -16 444 -16 466 0 460
-1 460 55 0 56 6 55 -464 55 -323 0 -435 -3 -444 -12z"/>
<path d="M1820 3350 c-24 -24 -25 -49 -6 -76 14 -18 36 -19 810 -22 786 -2
796 -2 816 18 25 25 26 54 0 80 -20 20 -33 20 -810 20 -777 0 -790 0 -810 -20z"/>
<path d="M3692 3354 c-50 -35 -15 -104 53 -104 44 0 75 25 75 60 0 35 -31 60
-75 60 -17 0 -41 -7 -53 -16z"/>
<path d="M2400 2573 c-305 -51 -584 -251 -728 -522 -212 -397 -143 -868 173
-1187 147 -149 319 -241 530 -285 77 -16 293 -16 370 0 433 90 753 425 815
850 17 112 8 284 -20 391 -46 180 -171 387 -303 504 -136 119 -306 204 -480
240 -71 15 -290 20 -357 9z m310 -117 c179 -32 328 -108 461 -234 208 -198
308 -460 279 -738 -48 -457 -432 -804 -890 -804 -377 0 -717 240 -843 596 -36
101 -49 181 -48 308 2 545 507 967 1041 872z"/>
<path d="M2360 2054 c-45 -20 -77 -50 -101 -96 -18 -34 -19 -63 -19 -384 0
-334 1 -349 21 -392 38 -78 130 -120 221 -101 40 9 87 40 270 182 247 191 268
215 268 304 0 60 -13 98 -43 132 -34 36 -417 333 -457 353 -42 22 -113 23
-160 2z"/>
</g>
</svg>
