<?xml version="1.0" standalone="no"?>
<!DOCTYPE svg PUBLIC "-//W3C//DTD SVG 20010904//EN"
 "http://www.w3.org/TR/2001/REC-SVG-20010904/DTD/svg10.dtd">
<svg version="1.0" xmlns="http://www.w3.org/2000/svg"
 width="512.000000pt" height="512.000000pt" viewBox="0 0 512.000000 512.000000"
 preserveAspectRatio="xMidYMid meet">

<g transform="translate(0.000000,512.000000) scale(0.100000,-0.100000)"
fill="#000000" stroke="none">
<path d="M270 4881 c-84 -26 -162 -85 -208 -159 -66 -104 -62 51 -62 -2163 0
-1981 0 -2008 20 -2070 36 -114 112 -194 229 -241 l56 -23 2255 0 2255 0 56
23 c117 47 193 127 229 241 20 62 20 90 20 1771 0 1681 0 1709 -20 1771 -36
114 -115 197 -226 239 -54 20 -73 20 -1167 20 l-1112 0 -270 269 c-202 201
-284 276 -325 297 l-55 29 -825 2 c-454 1 -836 -2 -850 -6z m1663 -162 c26
-13 147 -126 320 -298 l277 -276 1143 -5 c1088 -5 1144 -6 1176 -24 97 -52
121 -118 121 -333 0 -139 -6 -174 -25 -143 -3 5 -33 19 -65 31 l-60 22 0 127
c0 111 -3 131 -19 151 l-19 24 -2199 3 c-1209 1 -2208 0 -2221 -3 -12 -3 -31
-14 -42 -25 -19 -19 -20 -35 -20 -449 l0 -429 -38 -13 c-20 -7 -54 -23 -75
-36 l-37 -24 2 783 3 783 28 48 c19 33 44 56 80 77 l52 30 788 0 c781 0 788 0
830 -21z m2737 -949 l0 -70 -1844 0 c-1320 0 -1852 -3 -1875 -11 -70 -25 -69
-111 3 -139 18 -7 359 -10 1024 -10 l997 0 -225 -225 -225 -225 -1037 0 -1038
0 0 225 0 225 109 0 c145 0 190 18 191 78 1 64 -41 82 -191 82 l-109 0 0 70 0
70 2110 0 2110 0 0 -70z m187 -260 c36 -21 61 -44 80 -77 l28 -48 3 -1390 c2
-765 0 -1409 -3 -1431 -9 -64 -57 -128 -117 -158 l-52 -26 -2240 0 -2241 0
-52 30 c-36 21 -61 44 -80 77 l-28 48 0 1125 0 1125 27 46 c15 25 46 59 69 75
l42 29 1148 5 1149 5 282 282 c170 169 297 288 318 297 30 13 143 15 825 16
l790 0 52 -30z"/>
</g>
</svg>
