<?xml version="1.0" encoding="UTF-8"?>
<svg width="24" height="24" viewBox="0 0 24 24" fill="none" xmlns="http://www.w3.org/2000/svg">
  <path d="M12 2C6.477 2 2 6.477 2 12C2 16.419 4.865 20.167 8.84 21.539C9.34 21.633 9.525 21.336 9.525 21.079C9.525 20.847 9.516 20.143 9.512 19.307C6.726 19.914 6.14 17.967 6.14 17.967C5.684 16.811 5.029 16.515 5.029 16.515C4.121 15.881 5.098 15.894 5.098 15.894C6.108 15.965 6.649 16.93 6.649 16.93C7.55 18.437 8.974 18.014 9.544 17.766C9.637 17.106 9.899 16.684 10.188 16.42C7.954 16.153 5.596 15.314 5.596 11.574C5.596 10.485 6.007 9.59 6.669 8.888C6.559 8.644 6.198 7.621 6.769 6.219C6.769 6.219 7.616 5.959 9.5 7.279C10.29 7.069 11.15 6.964 12 6.959C12.85 6.964 13.71 7.069 14.5 7.279C16.383 5.959 17.23 6.219 17.23 6.219C17.801 7.621 17.44 8.644 17.33 8.888C17.993 9.59 18.4 10.485 18.4 11.574C18.4 15.326 16.037 16.149 13.794 16.41C14.165 16.738 14.5 17.389 14.5 18.384C14.5 19.813 14.487 20.753 14.487 21.079C14.487 21.339 14.67 21.639 15.179 21.538C19.158 20.167 22 16.418 22 12C22 6.477 17.523 2 12 2Z" fill="currentColor"/>
</svg> 