<?xml version="1.0" encoding="UTF-8"?>
<svg width="240" height="50" viewBox="0 0 240 50" fill="none" xmlns="http://www.w3.org/2000/svg">
  <defs>
    <linearGradient id="cloudGradient" x1="0%" y1="0%" x2="100%" y2="100%">
      <stop offset="0%" style="stop-color:white"/>
      <stop offset="100%" style="stop-color:rgba(255,255,255,0.9)"/>
    </linearGradient>
    <filter id="glow">
      <feGaussianBlur stdDeviation="1.5" result="coloredBlur"/>
      <feMerge>
        <feMergeNode in="coloredBlur"/>
        <feMergeNode in="SourceGraphic"/>
      </feMerge>
    </filter>
  </defs>
  
  <style>
    @keyframes float {
      0% { transform: translateY(0) rotate(0deg); }
      50% { transform: translateY(-3px) rotate(2deg); }
      100% { transform: translateY(0) rotate(0deg); }
    }
    @keyframes fadeIn {
      0% { opacity: 0; transform: translateY(5px) scale(0.95); }
      100% { opacity: 1; transform: translateY(0) scale(1); }
    }
    @keyframes dash {
      to {
        stroke-dashoffset: 0;
      }
    }
    .cloud {
      animation: float 4s ease-in-out infinite;
      filter: url(#glow);
    }
    .text {
      animation: fadeIn 1.2s cubic-bezier(0.4, 0, 0.2, 1) forwards;
    }
    .text-stroke {
      stroke-dasharray: 1000;
      stroke-dashoffset: 1000;
      animation: dash 2s ease-out forwards;
    }
    .sparkle {
      transform-origin: center;
      animation: float 3s ease-in-out infinite;
    }
  </style>
  
  <!-- Background Elements -->
  <g class="sparkle" style="animation-delay: -1s">
    <circle cx="15" cy="25" r="1" fill="white" opacity="0.5"/>
    <circle cx="35" cy="15" r="1" fill="white" opacity="0.5"/>
    <circle cx="25" cy="35" r="1" fill="white" opacity="0.5"/>
  </g>
  
  <!-- Cloud Icon with more detail -->
  <g class="cloud">
    <path d="M20 15C16.5 15 13.5 17 12 20C9.5 16.5 5 15 1 16.5C-3 18 -5 22 -4 26C-8 26.5 -11 30 -11 34C-11 38.5 -7.5 42 -3 42H20C25.5 42 30 37.5 30 32C30 26.5 25.5 22 20 22V15Z" fill="url(#cloudGradient)"/>
    <path d="M15 25C13 25 11.5 26 11 27.5C9.5 25.5 7 24.5 5 25.5C3 26.5 2 28.5 2.5 30.5C0 31 -1.5 33 -1.5 35C-1.5 37.5 0.5 39.5 3 39.5H15C18 39.5 20.5 37 20.5 34C20.5 31 18 28.5 15 28.5V25Z" fill="white" opacity="0.3"/>
  </g>

  <!-- Text with outline effect -->
  <g class="text">
    <text x="40" y="35" font-family="Inter, system-ui, -apple-system, sans-serif" font-size="28" font-weight="800" letter-spacing="-0.5">
      <tspan fill="white" class="text-stroke" stroke="white" stroke-width="0.5">Cloud</tspan>
      <tspan x="130" fill="white" class="text-stroke" stroke="white" stroke-width="0.5">Nest</tspan>
    </text>
    
    <!-- Decorative underline -->
    <path d="M40 38h85" stroke="white" stroke-width="2" stroke-linecap="round" opacity="0.3"/>
    <path d="M130 38h65" stroke="white" stroke-width="2" stroke-linecap="round" opacity="0.3"/>
  </g>
</svg> 